<mxfile host="app.diagrams.net" modified="2024-05-30T08:15:43.641Z" agent="Mozilla/5.0 (Windows NT 10.0; Win64; x64) AppleWebKit/537.36 (KHTML, like Gecko) Chrome/125.0.0.0 Safari/537.36" etag="Lih9cS7NXfcd1mFUaSOn" version="24.4.10" type="device">
  <diagram name="Page-1" id="uOgO_LtnpNgbNpRODR7z">
    <mxGraphModel dx="15150" dy="2610" grid="1" gridSize="10" guides="1" tooltips="1" connect="1" arrows="1" fold="1" page="1" pageScale="1" pageWidth="3300" pageHeight="4681" math="0" shadow="0">
      <root>
        <mxCell id="0" />
        <mxCell id="1" parent="0" />
        <mxCell id="D2uAuJA1LaHFy1BpvuMR-8" value="Employee&lt;br style=&quot;font-size: 20px;&quot;&gt;" style="shape=umlActor;verticalLabelPosition=bottom;verticalAlign=top;html=1;fontSize=20;fontStyle=1;strokeWidth=2;" parent="1" vertex="1">
          <mxGeometry x="-9570.000000000002" y="660" width="50" height="90" as="geometry" />
        </mxCell>
        <mxCell id="D2uAuJA1LaHFy1BpvuMR-9" value="Apply leaves" style="ellipse;whiteSpace=wrap;html=1;fontSize=20;fontStyle=1;strokeWidth=2;" parent="1" vertex="1">
          <mxGeometry x="-8725.11" y="670" width="375" height="70" as="geometry" />
        </mxCell>
        <mxCell id="D2uAuJA1LaHFy1BpvuMR-10" value="Check leave Approval" style="ellipse;whiteSpace=wrap;html=1;fontSize=20;fontStyle=1;strokeWidth=2;" parent="1" vertex="1">
          <mxGeometry x="-8724.23" y="970" width="375" height="70" as="geometry" />
        </mxCell>
        <mxCell id="D2uAuJA1LaHFy1BpvuMR-11" value="Update Profile" style="ellipse;whiteSpace=wrap;html=1;fontSize=20;fontStyle=1;strokeWidth=2;" parent="1" vertex="1">
          <mxGeometry x="-8697.449999999999" y="1730" width="375" height="70" as="geometry" />
        </mxCell>
        <mxCell id="D2uAuJA1LaHFy1BpvuMR-12" value="Forget Password" style="ellipse;whiteSpace=wrap;html=1;fontSize=20;fontStyle=1;strokeWidth=2;" parent="1" vertex="1">
          <mxGeometry x="-8718.83" y="1230" width="375" height="70" as="geometry" />
        </mxCell>
        <mxCell id="D2uAuJA1LaHFy1BpvuMR-13" value="Manager&lt;br style=&quot;font-size: 20px;&quot;&gt;" style="shape=umlActor;verticalLabelPosition=bottom;verticalAlign=top;html=1;fontSize=20;fontStyle=1;strokeWidth=2;" parent="1" vertex="1">
          <mxGeometry x="-9600" y="5235" width="40" height="80" as="geometry" />
        </mxCell>
        <mxCell id="D2uAuJA1LaHFy1BpvuMR-14" value="Check Leave Request" style="ellipse;whiteSpace=wrap;html=1;fontSize=20;fontStyle=1;strokeWidth=2;" parent="1" vertex="1">
          <mxGeometry x="-8723.1" y="4770" width="375" height="75" as="geometry" />
        </mxCell>
        <mxCell id="D2uAuJA1LaHFy1BpvuMR-15" value="Approve leave" style="ellipse;whiteSpace=wrap;html=1;fontSize=20;fontStyle=1;strokeWidth=2;" parent="1" vertex="1">
          <mxGeometry x="-8725.070000000002" y="4887.5" width="375" height="75" as="geometry" />
        </mxCell>
        <mxCell id="D2uAuJA1LaHFy1BpvuMR-16" value="Assign Task" style="ellipse;whiteSpace=wrap;html=1;fontSize=20;fontStyle=1;strokeWidth=2;" parent="1" vertex="1">
          <mxGeometry x="-8727.070000000002" y="5110" width="375" height="75" as="geometry" />
        </mxCell>
        <mxCell id="D2uAuJA1LaHFy1BpvuMR-17" value="Generate Salary Report" style="ellipse;whiteSpace=wrap;html=1;fontSize=20;fontStyle=1;strokeWidth=2;" parent="1" vertex="1">
          <mxGeometry x="-8739.070000000002" y="5340" width="375" height="75" as="geometry" />
        </mxCell>
        <mxCell id="D2uAuJA1LaHFy1BpvuMR-18" value="Request Loan" style="ellipse;whiteSpace=wrap;html=1;fontSize=20;fontStyle=1;strokeWidth=2;" parent="1" vertex="1">
          <mxGeometry x="-8721.06" y="1108" width="375" height="70" as="geometry" />
        </mxCell>
        <mxCell id="D2uAuJA1LaHFy1BpvuMR-20" value="Arrange Meeting" style="ellipse;whiteSpace=wrap;html=1;fontSize=20;fontStyle=1;strokeWidth=2;" parent="1" vertex="1">
          <mxGeometry x="-8022.92" y="8320" width="357" height="75" as="geometry" />
        </mxCell>
        <mxCell id="D2uAuJA1LaHFy1BpvuMR-21" value="Check Employee Performance" style="ellipse;whiteSpace=wrap;html=1;fontSize=20;fontStyle=1;strokeWidth=2;" parent="1" vertex="1">
          <mxGeometry x="-8019.37" y="8425" width="357" height="75" as="geometry" />
        </mxCell>
        <mxCell id="D2uAuJA1LaHFy1BpvuMR-22" value="Accountant" style="shape=umlActor;verticalLabelPosition=bottom;verticalAlign=top;html=1;fontSize=20;fontStyle=1;strokeWidth=2;" parent="1" vertex="1">
          <mxGeometry x="-9366.5" y="2495" width="39" height="70" as="geometry" />
        </mxCell>
        <mxCell id="D2uAuJA1LaHFy1BpvuMR-25" value="Check Loan eligibility." style="ellipse;whiteSpace=wrap;html=1;fontSize=20;fontStyle=1;strokeWidth=2;" parent="1" vertex="1">
          <mxGeometry x="-8664.16" y="2170" width="357" height="75" as="geometry" />
        </mxCell>
        <mxCell id="D2uAuJA1LaHFy1BpvuMR-26" value="Approve Loan" style="ellipse;whiteSpace=wrap;html=1;fontSize=20;fontStyle=1;strokeWidth=2;" parent="1" vertex="1">
          <mxGeometry x="-8725.070000000002" y="4590" width="375" height="70" as="geometry" />
        </mxCell>
        <mxCell id="D2uAuJA1LaHFy1BpvuMR-28" value="&lt;font style=&quot;font-size: 20px;&quot;&gt;Generate attendance Report&lt;/font&gt;" style="ellipse;whiteSpace=wrap;html=1;fontSize=20;fontStyle=1;strokeWidth=2;" parent="1" vertex="1">
          <mxGeometry x="-8717.710000000001" y="6180" width="375" height="80" as="geometry" />
        </mxCell>
        <mxCell id="D2uAuJA1LaHFy1BpvuMR-29" value="&lt;font style=&quot;font-size: 20px;&quot;&gt;Generate OT Report&lt;/font&gt;" style="ellipse;whiteSpace=wrap;html=1;fontSize=20;fontStyle=1;strokeWidth=2;" parent="1" vertex="1">
          <mxGeometry x="-8731.710000000001" y="5730" width="375" height="80" as="geometry" />
        </mxCell>
        <mxCell id="D2uAuJA1LaHFy1BpvuMR-30" value="&lt;font style=&quot;font-size: 20px;&quot;&gt;Generate Increment Report&lt;/font&gt;" style="ellipse;whiteSpace=wrap;html=1;fontSize=20;fontStyle=1;strokeWidth=2;" parent="1" vertex="1">
          <mxGeometry x="-8735.210000000001" y="5540" width="375" height="80" as="geometry" />
        </mxCell>
        <mxCell id="D2uAuJA1LaHFy1BpvuMR-34" value="&lt;font style=&quot;font-size: 20px;&quot;&gt;Generate Training Report&lt;/font&gt;" style="ellipse;whiteSpace=wrap;html=1;fontSize=20;fontStyle=1;strokeWidth=2;" parent="1" vertex="1">
          <mxGeometry x="-8720.710000000001" y="6360" width="375" height="70" as="geometry" />
        </mxCell>
        <mxCell id="D2uAuJA1LaHFy1BpvuMR-35" value="&lt;font style=&quot;font-size: 20px;&quot;&gt;Generate Leave Report&lt;/font&gt;" style="ellipse;whiteSpace=wrap;html=1;fontSize=20;fontStyle=1;strokeWidth=2;" parent="1" vertex="1">
          <mxGeometry x="-8712.460000000001" y="6600" width="375" height="70" as="geometry" />
        </mxCell>
        <mxCell id="D2uAuJA1LaHFy1BpvuMR-36" value="ApplyFull Day Leave&amp;nbsp;" style="ellipse;whiteSpace=wrap;html=1;fontSize=20;fontStyle=1;strokeWidth=2;" parent="1" vertex="1">
          <mxGeometry x="-7999.120000000001" y="420" width="173" height="70" as="geometry" />
        </mxCell>
        <mxCell id="D2uAuJA1LaHFy1BpvuMR-37" value="Apply Half day Leave" style="ellipse;whiteSpace=wrap;html=1;fontSize=20;fontStyle=1;strokeWidth=2;" parent="1" vertex="1">
          <mxGeometry x="-7997.370000000001" y="520" width="173" height="70" as="geometry" />
        </mxCell>
        <mxCell id="D2uAuJA1LaHFy1BpvuMR-38" value="Apply Short Leave" style="ellipse;whiteSpace=wrap;html=1;fontSize=20;fontStyle=1;strokeWidth=2;" parent="1" vertex="1">
          <mxGeometry x="-7990" y="600" width="140" height="70" as="geometry" />
        </mxCell>
        <mxCell id="D2uAuJA1LaHFy1BpvuMR-39" value="" style="endArrow=none;endSize=6;dashed=1;html=1;rounded=0;entryX=0;entryY=0.5;entryDx=0;entryDy=0;exitX=0.967;exitY=0.313;exitDx=0;exitDy=0;exitPerimeter=0;fontSize=20;endFill=0;startArrow=open;startFill=0;startSize=12;fontStyle=1;strokeWidth=2;" parent="1" source="D2uAuJA1LaHFy1BpvuMR-9" target="D2uAuJA1LaHFy1BpvuMR-36" edge="1">
          <mxGeometry width="160" relative="1" as="geometry">
            <mxPoint x="-8356.869999999999" y="693.2400000000002" as="sourcePoint" />
            <mxPoint x="-8275.06" y="603.6099999999997" as="targetPoint" />
          </mxGeometry>
        </mxCell>
        <mxCell id="D2uAuJA1LaHFy1BpvuMR-40" value="" style="endArrow=none;endSize=6;dashed=1;html=1;rounded=0;entryX=0.005;entryY=0.36;entryDx=0;entryDy=0;entryPerimeter=0;fontSize=20;endFill=0;startArrow=open;startFill=0;startSize=12;exitX=1;exitY=0.5;exitDx=0;exitDy=0;fontStyle=1;strokeWidth=2;" parent="1" source="D2uAuJA1LaHFy1BpvuMR-9" target="D2uAuJA1LaHFy1BpvuMR-38" edge="1">
          <mxGeometry width="160" relative="1" as="geometry">
            <mxPoint x="-8362.99" y="720" as="sourcePoint" />
            <mxPoint x="-8304.08" y="800" as="targetPoint" />
          </mxGeometry>
        </mxCell>
        <mxCell id="D2uAuJA1LaHFy1BpvuMR-41" value="&lt;font style=&quot;font-size: 20px;&quot;&gt;Generate staff Loan&amp;nbsp;&lt;/font&gt;&lt;div&gt;&lt;font style=&quot;font-size: 20px;&quot;&gt;request report&lt;/font&gt;&lt;/div&gt;" style="ellipse;whiteSpace=wrap;html=1;fontSize=20;fontStyle=1;strokeWidth=2;" parent="1" vertex="1">
          <mxGeometry x="-8714.42" y="6790" width="375" height="70" as="geometry" />
        </mxCell>
        <mxCell id="D2uAuJA1LaHFy1BpvuMR-42" value="&lt;font style=&quot;font-size: 20px;&quot;&gt;Generate home loan&amp;nbsp;&lt;/font&gt;&lt;div&gt;&lt;font style=&quot;font-size: 20px;&quot;&gt;request Report&lt;/font&gt;&lt;/div&gt;" style="ellipse;whiteSpace=wrap;html=1;fontSize=20;fontStyle=1;strokeWidth=2;" parent="1" vertex="1">
          <mxGeometry x="-8701.92" y="7060" width="375" height="70" as="geometry" />
        </mxCell>
        <mxCell id="D2uAuJA1LaHFy1BpvuMR-43" value="&lt;font style=&quot;font-size: 20px;&quot;&gt;Generate Vehicle Loan&amp;nbsp;&lt;/font&gt;&lt;div&gt;&lt;font style=&quot;font-size: 20px;&quot;&gt;Request Report&lt;/font&gt;&lt;/div&gt;" style="ellipse;whiteSpace=wrap;html=1;fontSize=20;fontStyle=1;strokeWidth=2;" parent="1" vertex="1">
          <mxGeometry x="-8699.92" y="7240" width="375" height="70" as="geometry" />
        </mxCell>
        <mxCell id="D2uAuJA1LaHFy1BpvuMR-44" value="&lt;font style=&quot;font-size: 20px;&quot;&gt;Generate Educational Loan&amp;nbsp;&lt;/font&gt;&lt;div&gt;&lt;font style=&quot;font-size: 20px;&quot;&gt;request Report&lt;/font&gt;&lt;/div&gt;" style="ellipse;whiteSpace=wrap;html=1;fontSize=20;fontStyle=1;strokeWidth=2;" parent="1" vertex="1">
          <mxGeometry x="-8693.92" y="7440" width="375" height="70" as="geometry" />
        </mxCell>
        <mxCell id="D2uAuJA1LaHFy1BpvuMR-45" value="&lt;font style=&quot;font-size: 20px;&quot;&gt;Generate Emergency Loan&amp;nbsp;&lt;/font&gt;&lt;div&gt;&lt;font style=&quot;font-size: 20px;&quot;&gt;request report&lt;/font&gt;&lt;/div&gt;" style="ellipse;whiteSpace=wrap;html=1;fontSize=20;fontStyle=1;strokeWidth=2;" parent="1" vertex="1">
          <mxGeometry x="-8689.92" y="7670" width="375" height="75" as="geometry" />
        </mxCell>
        <mxCell id="D2uAuJA1LaHFy1BpvuMR-46" value="&lt;font style=&quot;font-size: 20px;&quot;&gt;Generate product loan&amp;nbsp;&lt;/font&gt;&lt;div&gt;&lt;font style=&quot;font-size: 20px;&quot;&gt;request report&lt;/font&gt;&lt;/div&gt;" style="ellipse;whiteSpace=wrap;html=1;fontSize=20;fontStyle=1;strokeWidth=2;" parent="1" vertex="1">
          <mxGeometry x="-8684.92" y="7850" width="375" height="75" as="geometry" />
        </mxCell>
        <mxCell id="D2uAuJA1LaHFy1BpvuMR-49" value="&amp;lt;&amp;lt;extend&amp;gt;&amp;gt;" style="text;html=1;align=center;verticalAlign=middle;resizable=0;points=[];autosize=1;strokeColor=none;fillColor=none;fontSize=20;fontStyle=1;strokeWidth=2;" parent="1" vertex="1">
          <mxGeometry x="-8167.110000000001" y="615" width="130" height="40" as="geometry" />
        </mxCell>
        <mxCell id="D2uAuJA1LaHFy1BpvuMR-50" value="&amp;lt;&amp;lt;extend&amp;gt;&amp;gt;" style="text;html=1;align=center;verticalAlign=middle;resizable=0;points=[];autosize=1;strokeColor=none;fillColor=none;fontSize=20;fontStyle=1;strokeWidth=2;" parent="1" vertex="1">
          <mxGeometry x="-8220.23" y="520" width="130" height="40" as="geometry" />
        </mxCell>
        <mxCell id="D2uAuJA1LaHFy1BpvuMR-51" value="" style="endArrow=none;endFill=0;endSize=12;html=1;rounded=0;entryX=0;entryY=0.5;entryDx=0;entryDy=0;fontSize=20;fontStyle=1;strokeWidth=2;" parent="1" target="D2uAuJA1LaHFy1BpvuMR-9" edge="1">
          <mxGeometry width="160" relative="1" as="geometry">
            <mxPoint x="-9480" y="720" as="sourcePoint" />
            <mxPoint x="-8285.29" y="700" as="targetPoint" />
          </mxGeometry>
        </mxCell>
        <mxCell id="D2uAuJA1LaHFy1BpvuMR-52" value="" style="endArrow=none;endFill=0;endSize=12;html=1;rounded=0;entryX=0;entryY=0.5;entryDx=0;entryDy=0;fontSize=20;fontStyle=1;strokeWidth=2;" parent="1" target="D2uAuJA1LaHFy1BpvuMR-10" edge="1">
          <mxGeometry width="160" relative="1" as="geometry">
            <mxPoint x="-9480" y="720" as="sourcePoint" />
            <mxPoint x="-8725.29" y="395" as="targetPoint" />
          </mxGeometry>
        </mxCell>
        <mxCell id="D2uAuJA1LaHFy1BpvuMR-53" value="" style="endArrow=none;endFill=0;endSize=12;html=1;rounded=0;entryX=0;entryY=0.5;entryDx=0;entryDy=0;fontSize=20;fontStyle=1;strokeWidth=2;" parent="1" target="D2uAuJA1LaHFy1BpvuMR-18" edge="1">
          <mxGeometry width="160" relative="1" as="geometry">
            <mxPoint x="-9480" y="720" as="sourcePoint" />
            <mxPoint x="-8715.29" y="405" as="targetPoint" />
          </mxGeometry>
        </mxCell>
        <mxCell id="D2uAuJA1LaHFy1BpvuMR-54" value="" style="endArrow=none;endFill=0;endSize=12;html=1;rounded=0;entryX=0;entryY=0.5;entryDx=0;entryDy=0;fontSize=20;fontStyle=1;strokeWidth=2;" parent="1" target="D2uAuJA1LaHFy1BpvuMR-23" edge="1">
          <mxGeometry width="160" relative="1" as="geometry">
            <mxPoint x="-9315.18" y="2540" as="sourcePoint" />
            <mxPoint x="-9155.18" y="2540" as="targetPoint" />
          </mxGeometry>
        </mxCell>
        <mxCell id="D2uAuJA1LaHFy1BpvuMR-56" value="" style="endArrow=none;endFill=0;endSize=12;html=1;rounded=0;entryX=0;entryY=0.5;entryDx=0;entryDy=0;fontSize=20;fontStyle=1;strokeWidth=2;" parent="1" target="D2uAuJA1LaHFy1BpvuMR-47" edge="1">
          <mxGeometry width="160" relative="1" as="geometry">
            <mxPoint x="-9315.18" y="2540" as="sourcePoint" />
            <mxPoint x="-9145.18" y="2540" as="targetPoint" />
          </mxGeometry>
        </mxCell>
        <mxCell id="D2uAuJA1LaHFy1BpvuMR-57" value="" style="endArrow=none;endFill=0;endSize=12;html=1;rounded=0;entryX=0;entryY=0.5;entryDx=0;entryDy=0;fontSize=20;fontStyle=1;strokeWidth=2;" parent="1" target="D2uAuJA1LaHFy1BpvuMR-48" edge="1">
          <mxGeometry width="160" relative="1" as="geometry">
            <mxPoint x="-9315.18" y="2540" as="sourcePoint" />
            <mxPoint x="-9145.18" y="2540" as="targetPoint" />
          </mxGeometry>
        </mxCell>
        <mxCell id="D2uAuJA1LaHFy1BpvuMR-59" value="" style="endArrow=none;endFill=0;endSize=12;html=1;rounded=0;entryX=0;entryY=0.5;entryDx=0;entryDy=0;fontSize=20;fontStyle=1;strokeWidth=2;" parent="1" target="D2uAuJA1LaHFy1BpvuMR-12" edge="1">
          <mxGeometry width="160" relative="1" as="geometry">
            <mxPoint x="-9480" y="720" as="sourcePoint" />
            <mxPoint x="-9115.29" y="700" as="targetPoint" />
          </mxGeometry>
        </mxCell>
        <mxCell id="D2uAuJA1LaHFy1BpvuMR-60" value="" style="endArrow=none;endFill=0;endSize=12;html=1;rounded=0;entryX=0;entryY=0.5;entryDx=0;entryDy=0;fontSize=20;fontStyle=1;strokeWidth=2;" parent="1" target="D2uAuJA1LaHFy1BpvuMR-11" edge="1">
          <mxGeometry width="160" relative="1" as="geometry">
            <mxPoint x="-9480" y="720" as="sourcePoint" />
            <mxPoint x="-9135.29" y="700" as="targetPoint" />
          </mxGeometry>
        </mxCell>
        <mxCell id="D2uAuJA1LaHFy1BpvuMR-61" value="" style="endArrow=none;dashed=1;endFill=0;endSize=6;html=1;rounded=0;entryX=0;entryY=0.5;entryDx=0;entryDy=0;fontSize=20;exitX=0.989;exitY=0.383;exitDx=0;exitDy=0;startSize=12;startArrow=open;startFill=0;exitPerimeter=0;fontStyle=1;strokeWidth=2;" parent="1" source="D2uAuJA1LaHFy1BpvuMR-9" target="D2uAuJA1LaHFy1BpvuMR-37" edge="1">
          <mxGeometry width="160" relative="1" as="geometry">
            <mxPoint x="-8348.830000000002" y="705" as="sourcePoint" />
            <mxPoint x="-8184.08" y="700" as="targetPoint" />
          </mxGeometry>
        </mxCell>
        <mxCell id="D2uAuJA1LaHFy1BpvuMR-62" value="&amp;lt;&amp;lt;extend&amp;gt;&amp;gt;" style="text;html=1;align=center;verticalAlign=middle;resizable=0;points=[];autosize=1;strokeColor=none;fillColor=none;fontSize=20;fontStyle=1;strokeWidth=2;" parent="1" vertex="1">
          <mxGeometry x="-8167.110000000001" y="560" width="130" height="40" as="geometry" />
        </mxCell>
        <mxCell id="D2uAuJA1LaHFy1BpvuMR-64" value="&lt;font style=&quot;font-size: 20px;&quot;&gt;Generate No Pay Report&lt;/font&gt;" style="ellipse;whiteSpace=wrap;html=1;fontSize=20;fontStyle=1;strokeWidth=2;" parent="1" vertex="1">
          <mxGeometry x="-8720.710000000001" y="5980" width="375" height="70" as="geometry" />
        </mxCell>
        <mxCell id="D2uAuJA1LaHFy1BpvuMR-65" value="&lt;font style=&quot;font-size: 20px;&quot;&gt;Generate Monthly Increment Report&lt;/font&gt;" style="ellipse;whiteSpace=wrap;html=1;fontSize=20;fontStyle=1;strokeWidth=2;" parent="1" vertex="1">
          <mxGeometry x="-8017.62" y="5520" width="400" height="75" as="geometry" />
        </mxCell>
        <mxCell id="D2uAuJA1LaHFy1BpvuMR-66" value="&lt;font style=&quot;font-size: 20px;&quot;&gt;Generate Annual Increment Report&lt;/font&gt;" style="ellipse;whiteSpace=wrap;html=1;fontSize=20;fontStyle=1;strokeWidth=2;" parent="1" vertex="1">
          <mxGeometry x="-8007.62" y="5630" width="400" height="75" as="geometry" />
        </mxCell>
        <mxCell id="D2uAuJA1LaHFy1BpvuMR-67" value="&lt;font style=&quot;font-size: 20px;&quot;&gt;Generate Monthly OT Report&lt;/font&gt;" style="ellipse;whiteSpace=wrap;html=1;fontSize=20;fontStyle=1;strokeWidth=2;" parent="1" vertex="1">
          <mxGeometry x="-8019.37" y="5750" width="400" height="75" as="geometry" />
        </mxCell>
        <mxCell id="D2uAuJA1LaHFy1BpvuMR-68" value="&lt;font style=&quot;font-size: 20px;&quot;&gt;Generate Annual OT Report&lt;/font&gt;" style="ellipse;whiteSpace=wrap;html=1;fontSize=20;fontStyle=1;strokeWidth=2;" parent="1" vertex="1">
          <mxGeometry x="-8022.919999999999" y="5840" width="400" height="75" as="geometry" />
        </mxCell>
        <mxCell id="D2uAuJA1LaHFy1BpvuMR-69" value="&lt;font style=&quot;font-size: 20px;&quot;&gt;Generate Monthly No Pay Report&lt;/font&gt;" style="ellipse;whiteSpace=wrap;html=1;fontSize=20;fontStyle=1;strokeWidth=2;" parent="1" vertex="1">
          <mxGeometry x="-8011.750000000001" y="5950" width="400" height="75" as="geometry" />
        </mxCell>
        <mxCell id="D2uAuJA1LaHFy1BpvuMR-70" value="&lt;font style=&quot;font-size: 20px;&quot;&gt;Generate Annual No Pay Report&lt;/font&gt;" style="ellipse;whiteSpace=wrap;html=1;fontSize=20;fontStyle=1;strokeWidth=2;" parent="1" vertex="1">
          <mxGeometry x="-7987.62" y="6075" width="400" height="75" as="geometry" />
        </mxCell>
        <mxCell id="D2uAuJA1LaHFy1BpvuMR-71" value="Generate Annual Attendance Report" style="ellipse;whiteSpace=wrap;html=1;fontSize=20;fontStyle=1;strokeWidth=2;" parent="1" vertex="1">
          <mxGeometry x="-8017.62" y="6270" width="400" height="75" as="geometry" />
        </mxCell>
        <mxCell id="D2uAuJA1LaHFy1BpvuMR-72" value="&lt;font style=&quot;font-size: 20px;&quot;&gt;Generate Monthly Training Report&lt;/font&gt;" style="ellipse;whiteSpace=wrap;html=1;fontSize=20;fontStyle=1;strokeWidth=2;" parent="1" vertex="1">
          <mxGeometry x="-8019.37" y="6367.5" width="400" height="75" as="geometry" />
        </mxCell>
        <mxCell id="D2uAuJA1LaHFy1BpvuMR-73" value="&lt;font style=&quot;font-size: 20px;&quot;&gt;Generate Annual Training Report&lt;/font&gt;" style="ellipse;whiteSpace=wrap;html=1;fontSize=20;fontStyle=1;strokeWidth=2;" parent="1" vertex="1">
          <mxGeometry x="-8021.12" y="6470" width="400" height="75" as="geometry" />
        </mxCell>
        <mxCell id="D2uAuJA1LaHFy1BpvuMR-74" value="&lt;font style=&quot;font-size: 20px;&quot;&gt;Generate Monthly Leave Report&lt;/font&gt;" style="ellipse;whiteSpace=wrap;html=1;fontSize=20;fontStyle=1;strokeWidth=2;" parent="1" vertex="1">
          <mxGeometry x="-8022.919999999999" y="6580" width="400" height="75" as="geometry" />
        </mxCell>
        <mxCell id="D2uAuJA1LaHFy1BpvuMR-75" value="&lt;font style=&quot;font-size: 20px;&quot;&gt;Generate Annual Leave Report&lt;/font&gt;" style="ellipse;whiteSpace=wrap;html=1;fontSize=20;fontStyle=1;strokeWidth=2;" parent="1" vertex="1">
          <mxGeometry x="-8017.62" y="6680" width="400" height="75" as="geometry" />
        </mxCell>
        <mxCell id="D2uAuJA1LaHFy1BpvuMR-76" value="&lt;font style=&quot;font-size: 20px;&quot;&gt;Generate Monthly Staff Loan request report&lt;/font&gt;" style="ellipse;whiteSpace=wrap;html=1;fontSize=20;fontStyle=1;strokeWidth=2;" parent="1" vertex="1">
          <mxGeometry x="-8002.959999999998" y="6805" width="400" height="75" as="geometry" />
        </mxCell>
        <mxCell id="D2uAuJA1LaHFy1BpvuMR-77" value="&lt;font style=&quot;font-size: 20px;&quot;&gt;Generate Annual Staff Loan request report&lt;/font&gt;" style="ellipse;whiteSpace=wrap;html=1;fontSize=20;fontStyle=1;strokeWidth=2;" parent="1" vertex="1">
          <mxGeometry x="-8017.62" y="6910" width="400" height="75" as="geometry" />
        </mxCell>
        <mxCell id="D2uAuJA1LaHFy1BpvuMR-78" value="&lt;font style=&quot;font-size: 20px;&quot;&gt;Generate Monthly home Loan request report&lt;/font&gt;" style="ellipse;whiteSpace=wrap;html=1;fontSize=20;fontStyle=1;strokeWidth=2;" parent="1" vertex="1">
          <mxGeometry x="-8034.599999999999" y="7027.5" width="422.85" height="60" as="geometry" />
        </mxCell>
        <mxCell id="D2uAuJA1LaHFy1BpvuMR-79" value="&lt;font style=&quot;font-size: 20px;&quot;&gt;Generate Annual home Loan request report&lt;/font&gt;" style="ellipse;whiteSpace=wrap;html=1;fontSize=20;fontStyle=1;strokeWidth=2;" parent="1" vertex="1">
          <mxGeometry x="-8029.04" y="7105" width="422.85" height="85" as="geometry" />
        </mxCell>
        <mxCell id="D2uAuJA1LaHFy1BpvuMR-80" value="&lt;font style=&quot;font-size: 20px;&quot;&gt;Generate Monthly Vehicle Loan request report&lt;/font&gt;" style="ellipse;whiteSpace=wrap;html=1;fontSize=20;fontStyle=1;strokeWidth=2;" parent="1" vertex="1">
          <mxGeometry x="-8023.169999999999" y="7212.5" width="400" height="75" as="geometry" />
        </mxCell>
        <mxCell id="D2uAuJA1LaHFy1BpvuMR-81" value="&lt;font style=&quot;font-size: 20px;&quot;&gt;Generate Annual Vehicle Loan request report&lt;/font&gt;" style="ellipse;whiteSpace=wrap;html=1;fontSize=20;fontStyle=1;strokeWidth=2;" parent="1" vertex="1">
          <mxGeometry x="-8023.169999999999" y="7320" width="400" height="75" as="geometry" />
        </mxCell>
        <mxCell id="D2uAuJA1LaHFy1BpvuMR-82" value="&lt;font style=&quot;font-size: 20px;&quot;&gt;Generate Monthly Educational Loan request report&lt;/font&gt;" style="ellipse;whiteSpace=wrap;html=1;fontSize=20;fontStyle=1;strokeWidth=2;" parent="1" vertex="1">
          <mxGeometry x="-8034.599999999999" y="7415" width="526.09" height="75" as="geometry" />
        </mxCell>
        <mxCell id="D2uAuJA1LaHFy1BpvuMR-83" value="&lt;font style=&quot;font-size: 20px;&quot;&gt;Generate Annual Educational Loan request report&lt;/font&gt;" style="ellipse;whiteSpace=wrap;html=1;fontSize=20;fontStyle=1;strokeWidth=2;" parent="1" vertex="1">
          <mxGeometry x="-8019.37" y="7510" width="466.09" height="75" as="geometry" />
        </mxCell>
        <mxCell id="D2uAuJA1LaHFy1BpvuMR-84" value="&lt;font style=&quot;font-size: 20px;&quot;&gt;Generate Monthly Emergency Loan&lt;/font&gt;&lt;div&gt;&lt;font style=&quot;font-size: 20px;&quot;&gt;&amp;nbsp;request report&lt;/font&gt;&lt;/div&gt;" style="ellipse;whiteSpace=wrap;html=1;fontSize=20;fontStyle=1;strokeWidth=2;" parent="1" vertex="1">
          <mxGeometry x="-8009.62" y="7620" width="442" height="90" as="geometry" />
        </mxCell>
        <mxCell id="D2uAuJA1LaHFy1BpvuMR-85" value="&lt;font style=&quot;font-size: 20px;&quot;&gt;Generate Annual Emergency Loan request report&lt;/font&gt;" style="ellipse;whiteSpace=wrap;html=1;fontSize=20;fontStyle=1;strokeWidth=2;" parent="1" vertex="1">
          <mxGeometry x="-8019.37" y="7720" width="456.6" height="105" as="geometry" />
        </mxCell>
        <mxCell id="D2uAuJA1LaHFy1BpvuMR-86" value="&lt;font style=&quot;font-size: 20px;&quot;&gt;Generate Monthly Product Loan request report&lt;/font&gt;" style="ellipse;whiteSpace=wrap;html=1;fontSize=20;fontStyle=1;strokeWidth=2;" parent="1" vertex="1">
          <mxGeometry x="-8011.750000000001" y="7845" width="436.45" height="85" as="geometry" />
        </mxCell>
        <mxCell id="D2uAuJA1LaHFy1BpvuMR-87" value="&lt;font style=&quot;font-size: 20px;&quot;&gt;Generate Annual Product Loan request report&lt;/font&gt;" style="ellipse;whiteSpace=wrap;html=1;fontSize=20;fontStyle=1;strokeWidth=2;" parent="1" vertex="1">
          <mxGeometry x="-8002.950000000002" y="7940" width="400" height="90" as="geometry" />
        </mxCell>
        <mxCell id="D2uAuJA1LaHFy1BpvuMR-88" value="&lt;font style=&quot;font-size: 20px;&quot;&gt;Generate Annual Salary Report&lt;/font&gt;" style="ellipse;whiteSpace=wrap;html=1;fontSize=20;fontStyle=1;strokeWidth=2;" parent="1" vertex="1">
          <mxGeometry x="-8017.62" y="5415" width="400" height="75" as="geometry" />
        </mxCell>
        <mxCell id="D2uAuJA1LaHFy1BpvuMR-89" value="&lt;font style=&quot;font-size: 20px;&quot;&gt;Generate Monthly Salary Report&lt;/font&gt;" style="ellipse;whiteSpace=wrap;html=1;fontSize=20;fontStyle=1;strokeWidth=2;" parent="1" vertex="1">
          <mxGeometry x="-8011.739999999999" y="5310" width="400" height="75" as="geometry" />
        </mxCell>
        <mxCell id="D2uAuJA1LaHFy1BpvuMR-90" value="&lt;font style=&quot;font-size: 20px;&quot;&gt;Check Available Leave Balance&lt;/font&gt;" style="ellipse;whiteSpace=wrap;html=1;fontSize=20;fontStyle=1;strokeWidth=2;" parent="1" vertex="1">
          <mxGeometry x="-8194.73" y="4812.5" width="386.64" height="75" as="geometry" />
        </mxCell>
        <mxCell id="D2uAuJA1LaHFy1BpvuMR-91" value="&lt;font style=&quot;font-size: 20px;&quot;&gt;Check Loan Request&lt;/font&gt;" style="ellipse;whiteSpace=wrap;html=1;fontSize=20;fontStyle=1;strokeWidth=2;" parent="1" vertex="1">
          <mxGeometry x="-8732.33" y="4390" width="375" height="80" as="geometry" />
        </mxCell>
        <mxCell id="D2uAuJA1LaHFy1BpvuMR-92" value="&lt;font style=&quot;font-size: 20px;&quot;&gt;View Profile&lt;/font&gt;" style="ellipse;whiteSpace=wrap;html=1;fontSize=20;fontStyle=1;strokeWidth=2;" parent="1" vertex="1">
          <mxGeometry x="-8724.829999999998" y="1365" width="375" height="80" as="geometry" />
        </mxCell>
        <mxCell id="D2uAuJA1LaHFy1BpvuMR-93" value="" style="endArrow=none;html=1;rounded=0;entryX=0;entryY=0.5;entryDx=0;entryDy=0;fontSize=20;fontStyle=1;strokeWidth=2;" parent="1" target="D2uAuJA1LaHFy1BpvuMR-92" edge="1">
          <mxGeometry width="50" height="50" relative="1" as="geometry">
            <mxPoint x="-9480" y="720" as="sourcePoint" />
            <mxPoint x="-8786.29" y="1298.727361505682" as="targetPoint" />
          </mxGeometry>
        </mxCell>
        <mxCell id="D2uAuJA1LaHFy1BpvuMR-94" value="Approve Staff Loan" style="ellipse;whiteSpace=wrap;html=1;fontSize=20;fontStyle=1;strokeWidth=2;" parent="1" vertex="1">
          <mxGeometry x="-8182.960000000003" y="4230" width="277" height="70" as="geometry" />
        </mxCell>
        <mxCell id="D2uAuJA1LaHFy1BpvuMR-95" value="&lt;font style=&quot;font-size: 20px;&quot;&gt;Approve Home Loan&lt;/font&gt;" style="ellipse;whiteSpace=wrap;html=1;fontSize=20;fontStyle=1;strokeWidth=2;" parent="1" vertex="1">
          <mxGeometry x="-8146.26" y="4310" width="281" height="70" as="geometry" />
        </mxCell>
        <mxCell id="D2uAuJA1LaHFy1BpvuMR-96" value="&lt;font style=&quot;font-size: 20px;&quot;&gt;Approve Vehicle Loan&lt;/font&gt;" style="ellipse;whiteSpace=wrap;html=1;fontSize=20;fontStyle=1;strokeWidth=2;" parent="1" vertex="1">
          <mxGeometry x="-8150.300000000001" y="4400" width="281" height="70" as="geometry" />
        </mxCell>
        <mxCell id="D2uAuJA1LaHFy1BpvuMR-97" value="&lt;font style=&quot;font-size: 20px;&quot;&gt;Approve Educational Loan&lt;/font&gt;" style="ellipse;whiteSpace=wrap;html=1;fontSize=20;fontStyle=1;strokeWidth=2;" parent="1" vertex="1">
          <mxGeometry x="-8129.210000000001" y="4490" width="281" height="70" as="geometry" />
        </mxCell>
        <mxCell id="D2uAuJA1LaHFy1BpvuMR-98" value="&lt;font style=&quot;font-size: 20px;&quot;&gt;Approve Emergency Loan&lt;/font&gt;" style="ellipse;whiteSpace=wrap;html=1;fontSize=20;fontStyle=1;strokeWidth=2;" parent="1" vertex="1">
          <mxGeometry x="-8112.499999999998" y="4590" width="281" height="70" as="geometry" />
        </mxCell>
        <mxCell id="D2uAuJA1LaHFy1BpvuMR-99" value="&lt;font style=&quot;font-size: 20px;&quot;&gt;Approve Products Loan&lt;/font&gt;" style="ellipse;whiteSpace=wrap;html=1;fontSize=20;fontStyle=1;strokeWidth=2;" parent="1" vertex="1">
          <mxGeometry x="-8137.300000000001" y="4690" width="281" height="70" as="geometry" />
        </mxCell>
        <mxCell id="D2uAuJA1LaHFy1BpvuMR-100" value="Request staff&amp;nbsp; Loan" style="ellipse;whiteSpace=wrap;html=1;fontSize=20;fontStyle=1;strokeWidth=2;" parent="1" vertex="1">
          <mxGeometry x="-8037.699999999999" y="1100" width="265" height="70" as="geometry" />
        </mxCell>
        <mxCell id="D2uAuJA1LaHFy1BpvuMR-101" value="&lt;font style=&quot;font-size: 20px;&quot;&gt;Request Home Loan&lt;/font&gt;" style="ellipse;whiteSpace=wrap;html=1;fontSize=20;fontStyle=1;strokeWidth=2;" parent="1" vertex="1">
          <mxGeometry x="-8035.369999999999" y="1190" width="263.5" height="80" as="geometry" />
        </mxCell>
        <mxCell id="D2uAuJA1LaHFy1BpvuMR-102" value="&lt;font style=&quot;font-size: 20px;&quot;&gt;Request Vehicle Loan&lt;/font&gt;" style="ellipse;whiteSpace=wrap;html=1;fontSize=20;fontStyle=1;strokeWidth=2;" parent="1" vertex="1">
          <mxGeometry x="-8037.699999999999" y="1280" width="278" height="80" as="geometry" />
        </mxCell>
        <mxCell id="D2uAuJA1LaHFy1BpvuMR-103" value="&lt;font style=&quot;font-size: 20px;&quot;&gt;Request&amp;nbsp;Educational&lt;br style=&quot;font-size: 20px;&quot;&gt;&amp;nbsp;Loan&lt;/font&gt;" style="ellipse;whiteSpace=wrap;html=1;fontSize=20;fontStyle=1;strokeWidth=2;" parent="1" vertex="1">
          <mxGeometry x="-8037.699999999999" y="1370" width="278" height="80" as="geometry" />
        </mxCell>
        <mxCell id="D2uAuJA1LaHFy1BpvuMR-104" value="&lt;font style=&quot;font-size: 20px;&quot;&gt;Request&amp;nbsp;Emergency&lt;br style=&quot;font-size: 20px;&quot;&gt;&amp;nbsp;Loan&lt;/font&gt;" style="ellipse;whiteSpace=wrap;html=1;fontSize=20;fontStyle=1;strokeWidth=2;" parent="1" vertex="1">
          <mxGeometry x="-8042.119999999999" y="1470" width="278" height="80" as="geometry" />
        </mxCell>
        <mxCell id="D2uAuJA1LaHFy1BpvuMR-105" value="&lt;font style=&quot;font-size: 20px;&quot;&gt;Request Products&lt;br style=&quot;font-size: 20px;&quot;&gt;&amp;nbsp;Loan&lt;/font&gt;" style="ellipse;whiteSpace=wrap;html=1;fontSize=20;fontStyle=1;strokeWidth=2;" parent="1" vertex="1">
          <mxGeometry x="-8042.119999999999" y="1570" width="278" height="80" as="geometry" />
        </mxCell>
        <mxCell id="D2uAuJA1LaHFy1BpvuMR-106" value="&lt;font style=&quot;font-size: 20px;&quot;&gt;Cancel Leave&lt;/font&gt;" style="ellipse;whiteSpace=wrap;html=1;fontSize=20;fontStyle=1;strokeWidth=2;" parent="1" vertex="1">
          <mxGeometry x="-8727.62" y="5000" width="375" height="75" as="geometry" />
        </mxCell>
        <mxCell id="D2uAuJA1LaHFy1BpvuMR-107" value="&lt;font style=&quot;font-size: 20px;&quot;&gt;Logout&lt;/font&gt;" style="ellipse;whiteSpace=wrap;html=1;fontSize=20;fontStyle=1;strokeWidth=2;" parent="1" vertex="1">
          <mxGeometry x="-8684.840000000002" y="2040" width="375" height="80" as="geometry" />
        </mxCell>
        <mxCell id="D2uAuJA1LaHFy1BpvuMR-108" value="&lt;font style=&quot;font-size: 20px;&quot;&gt;Login&lt;/font&gt;" style="ellipse;whiteSpace=wrap;html=1;fontSize=20;fontStyle=1;strokeWidth=2;" parent="1" vertex="1">
          <mxGeometry x="-8724.23" y="340" width="375" height="80" as="geometry" />
        </mxCell>
        <mxCell id="D2uAuJA1LaHFy1BpvuMR-109" value="" style="endArrow=none;html=1;rounded=0;entryX=0;entryY=0.5;entryDx=0;entryDy=0;fontSize=20;fontStyle=1;strokeWidth=2;" parent="1" target="D2uAuJA1LaHFy1BpvuMR-108" edge="1">
          <mxGeometry width="50" height="50" relative="1" as="geometry">
            <mxPoint x="-9480" y="720" as="sourcePoint" />
            <mxPoint x="-8376.29" y="530" as="targetPoint" />
          </mxGeometry>
        </mxCell>
        <mxCell id="D2uAuJA1LaHFy1BpvuMR-110" value="" style="endArrow=none;html=1;rounded=0;entryX=0;entryY=0.5;entryDx=0;entryDy=0;fontSize=20;fontStyle=1;strokeWidth=2;" parent="1" target="D2uAuJA1LaHFy1BpvuMR-107" edge="1">
          <mxGeometry width="50" height="50" relative="1" as="geometry">
            <mxPoint x="-9480" y="720" as="sourcePoint" />
            <mxPoint x="-9266.29" y="950" as="targetPoint" />
          </mxGeometry>
        </mxCell>
        <mxCell id="D2uAuJA1LaHFy1BpvuMR-111" value="" style="endArrow=none;dashed=1;html=1;dashPattern=1 3;strokeWidth=2;rounded=0;entryX=0;entryY=0.5;entryDx=0;entryDy=0;fontSize=20;startArrow=open;startFill=0;startSize=12;fontStyle=1" parent="1" target="D2uAuJA1LaHFy1BpvuMR-101" edge="1">
          <mxGeometry width="50" height="50" relative="1" as="geometry">
            <mxPoint x="-8350" y="1140" as="sourcePoint" />
            <mxPoint x="-8297.92" y="1180" as="targetPoint" />
          </mxGeometry>
        </mxCell>
        <mxCell id="D2uAuJA1LaHFy1BpvuMR-112" value="" style="endArrow=none;dashed=1;html=1;dashPattern=1 3;strokeWidth=2;rounded=0;entryX=0;entryY=0.5;entryDx=0;entryDy=0;exitX=0.979;exitY=0.363;exitDx=0;exitDy=0;exitPerimeter=0;fontSize=20;startArrow=open;startFill=0;startSize=12;fontStyle=1" parent="1" source="D2uAuJA1LaHFy1BpvuMR-18" target="D2uAuJA1LaHFy1BpvuMR-100" edge="1">
          <mxGeometry width="50" height="50" relative="1" as="geometry">
            <mxPoint x="-8350.365000000002" y="1222.4700000000003" as="sourcePoint" />
            <mxPoint x="-8017.92" y="1115" as="targetPoint" />
          </mxGeometry>
        </mxCell>
        <mxCell id="D2uAuJA1LaHFy1BpvuMR-113" value="" style="endArrow=none;dashed=1;html=1;dashPattern=1 3;strokeWidth=2;rounded=0;entryX=0;entryY=0.5;entryDx=0;entryDy=0;exitX=0.989;exitY=0.591;exitDx=0;exitDy=0;fontSize=20;startArrow=open;startFill=0;startSize=12;exitPerimeter=0;fontStyle=1" parent="1" source="D2uAuJA1LaHFy1BpvuMR-18" target="D2uAuJA1LaHFy1BpvuMR-103" edge="1">
          <mxGeometry width="50" height="50" relative="1" as="geometry">
            <mxPoint x="-8346.92" y="1235" as="sourcePoint" />
            <mxPoint x="-8007.92" y="1125" as="targetPoint" />
          </mxGeometry>
        </mxCell>
        <mxCell id="D2uAuJA1LaHFy1BpvuMR-114" value="" style="endArrow=none;dashed=1;html=1;dashPattern=1 3;strokeWidth=2;rounded=0;entryX=0;entryY=0.5;entryDx=0;entryDy=0;exitX=0.97;exitY=0.648;exitDx=0;exitDy=0;exitPerimeter=0;fontSize=20;startArrow=open;startFill=0;startSize=12;fontStyle=1" parent="1" source="D2uAuJA1LaHFy1BpvuMR-18" target="D2uAuJA1LaHFy1BpvuMR-104" edge="1">
          <mxGeometry width="50" height="50" relative="1" as="geometry">
            <mxPoint x="-8346.654999999999" y="1245.08" as="sourcePoint" />
            <mxPoint x="-7997.92" y="1135" as="targetPoint" />
          </mxGeometry>
        </mxCell>
        <mxCell id="D2uAuJA1LaHFy1BpvuMR-115" value="" style="endArrow=none;dashed=1;html=1;dashPattern=1 3;strokeWidth=2;rounded=0;exitX=0.993;exitY=0.538;exitDx=0;exitDy=0;exitPerimeter=0;fontSize=20;startArrow=open;startFill=0;startSize=12;entryX=0;entryY=0.5;entryDx=0;entryDy=0;fontStyle=1" parent="1" source="D2uAuJA1LaHFy1BpvuMR-18" target="D2uAuJA1LaHFy1BpvuMR-102" edge="1">
          <mxGeometry width="50" height="50" relative="1" as="geometry">
            <mxPoint x="-8357.92" y="1250" as="sourcePoint" />
            <mxPoint x="-8027.92" y="1500" as="targetPoint" />
          </mxGeometry>
        </mxCell>
        <mxCell id="D2uAuJA1LaHFy1BpvuMR-116" value="" style="endArrow=none;dashed=1;html=1;dashPattern=1 3;strokeWidth=2;rounded=0;entryX=0;entryY=0.5;entryDx=0;entryDy=0;exitX=0.944;exitY=0.719;exitDx=0;exitDy=0;exitPerimeter=0;fontSize=20;startArrow=open;startFill=0;startSize=12;fontStyle=1" parent="1" source="D2uAuJA1LaHFy1BpvuMR-18" target="D2uAuJA1LaHFy1BpvuMR-105" edge="1">
          <mxGeometry width="50" height="50" relative="1" as="geometry">
            <mxPoint x="-8362.025000000001" y="1255.0200000000004" as="sourcePoint" />
            <mxPoint x="-7977.92" y="1155" as="targetPoint" />
          </mxGeometry>
        </mxCell>
        <mxCell id="D2uAuJA1LaHFy1BpvuMR-117" value="&lt;font style=&quot;font-size: 20px;&quot;&gt;&amp;lt;&amp;lt;extend&amp;gt;&amp;gt;&lt;/font&gt;" style="text;html=1;align=center;verticalAlign=middle;resizable=0;points=[];autosize=1;strokeColor=none;fillColor=none;fontSize=20;fontStyle=1;strokeWidth=2;" parent="1" vertex="1">
          <mxGeometry x="-8198.8" y="1100" width="130" height="40" as="geometry" />
        </mxCell>
        <mxCell id="D2uAuJA1LaHFy1BpvuMR-118" value="&lt;font style=&quot;font-size: 20px;&quot;&gt;&amp;lt;&amp;lt;extend&amp;gt;&amp;gt;&lt;/font&gt;" style="text;html=1;align=center;verticalAlign=middle;resizable=0;points=[];autosize=1;strokeColor=none;fillColor=none;fontSize=20;fontStyle=1;strokeWidth=2;" parent="1" vertex="1">
          <mxGeometry x="-8190" y="1158" width="130" height="40" as="geometry" />
        </mxCell>
        <mxCell id="D2uAuJA1LaHFy1BpvuMR-119" value="&lt;font style=&quot;font-size: 20px;&quot;&gt;&amp;lt;&amp;lt;extend&amp;gt;&amp;gt;&lt;/font&gt;" style="text;html=1;align=center;verticalAlign=middle;resizable=0;points=[];autosize=1;strokeColor=none;fillColor=none;fontSize=20;fontStyle=1;strokeWidth=2;" parent="1" vertex="1">
          <mxGeometry x="-8190" y="1230" width="130" height="40" as="geometry" />
        </mxCell>
        <mxCell id="D2uAuJA1LaHFy1BpvuMR-120" value="&lt;font style=&quot;font-size: 20px;&quot;&gt;&amp;lt;&amp;lt;extend&amp;gt;&amp;gt;&lt;/font&gt;" style="text;html=1;align=center;verticalAlign=middle;resizable=0;points=[];autosize=1;strokeColor=none;fillColor=none;fontSize=20;fontStyle=1;strokeWidth=2;" parent="1" vertex="1">
          <mxGeometry x="-8202.289999999999" y="1290" width="130" height="40" as="geometry" />
        </mxCell>
        <mxCell id="D2uAuJA1LaHFy1BpvuMR-121" value="&lt;font style=&quot;font-size: 20px;&quot;&gt;&amp;lt;&amp;lt;extend&amp;gt;&amp;gt;&lt;/font&gt;" style="text;html=1;align=center;verticalAlign=middle;resizable=0;points=[];autosize=1;strokeColor=none;fillColor=none;fontSize=20;fontStyle=1;strokeWidth=2;" parent="1" vertex="1">
          <mxGeometry x="-8202.289999999999" y="1350" width="130" height="40" as="geometry" />
        </mxCell>
        <mxCell id="D2uAuJA1LaHFy1BpvuMR-122" value="&lt;font style=&quot;font-size: 20px;&quot;&gt;&amp;lt;&amp;lt;extend&amp;gt;&amp;gt;&lt;/font&gt;" style="text;html=1;align=center;verticalAlign=middle;resizable=0;points=[];autosize=1;strokeColor=none;fillColor=none;fontSize=20;fontStyle=1;strokeWidth=2;" parent="1" vertex="1">
          <mxGeometry x="-8234.519999999999" y="1420" width="130" height="40" as="geometry" />
        </mxCell>
        <mxCell id="D2uAuJA1LaHFy1BpvuMR-123" value="Check Staff Loan eligibility." style="ellipse;whiteSpace=wrap;html=1;fontSize=20;fontStyle=1;strokeWidth=2;" parent="1" vertex="1">
          <mxGeometry x="-8010.009999999999" y="1980" width="357" height="75" as="geometry" />
        </mxCell>
        <mxCell id="D2uAuJA1LaHFy1BpvuMR-124" value="Check Home Loan eligibility." style="ellipse;whiteSpace=wrap;html=1;fontSize=20;fontStyle=1;strokeWidth=2;" parent="1" vertex="1">
          <mxGeometry x="-8006.21" y="2077.5" width="357" height="75" as="geometry" />
        </mxCell>
        <mxCell id="D2uAuJA1LaHFy1BpvuMR-125" value="Check vehicle Loan eligibility." style="ellipse;whiteSpace=wrap;html=1;fontSize=20;fontStyle=1;strokeWidth=2;" parent="1" vertex="1">
          <mxGeometry x="-8004.46" y="2165" width="357" height="75" as="geometry" />
        </mxCell>
        <mxCell id="D2uAuJA1LaHFy1BpvuMR-126" value="Check Educational Loan eligibility." style="ellipse;whiteSpace=wrap;html=1;fontSize=20;fontStyle=1;strokeWidth=2;" parent="1" vertex="1">
          <mxGeometry x="-8004.46" y="2245" width="357" height="75" as="geometry" />
        </mxCell>
        <mxCell id="D2uAuJA1LaHFy1BpvuMR-127" value="Check Emergency Loan eligibility." style="ellipse;whiteSpace=wrap;html=1;fontSize=20;fontStyle=1;strokeWidth=2;" parent="1" vertex="1">
          <mxGeometry x="-8010.009999999999" y="2337.5" width="357" height="75" as="geometry" />
        </mxCell>
        <mxCell id="D2uAuJA1LaHFy1BpvuMR-128" value="Check Products Loan eligibility." style="ellipse;whiteSpace=wrap;html=1;fontSize=20;fontStyle=1;strokeWidth=2;" parent="1" vertex="1">
          <mxGeometry x="-8014.62" y="2440" width="357" height="75" as="geometry" />
        </mxCell>
        <mxCell id="D2uAuJA1LaHFy1BpvuMR-129" value="" style="endArrow=none;dashed=1;html=1;strokeWidth=2;rounded=0;entryX=0;entryY=0.5;entryDx=0;entryDy=0;exitX=0.971;exitY=0.311;exitDx=0;exitDy=0;exitPerimeter=0;startArrow=open;startFill=0;startSize=12;fontSize=20;fontStyle=1" parent="1" source="D2uAuJA1LaHFy1BpvuMR-25" target="D2uAuJA1LaHFy1BpvuMR-123" edge="1">
          <mxGeometry width="50" height="50" relative="1" as="geometry">
            <mxPoint x="-8309.66" y="2200" as="sourcePoint" />
            <mxPoint x="-8259.66" y="2150" as="targetPoint" />
          </mxGeometry>
        </mxCell>
        <mxCell id="D2uAuJA1LaHFy1BpvuMR-130" value="" style="endArrow=none;dashed=1;html=1;strokeWidth=2;rounded=0;entryX=0;entryY=0.5;entryDx=0;entryDy=0;startArrow=open;startFill=0;startSize=12;fontSize=20;fontStyle=1" parent="1" target="D2uAuJA1LaHFy1BpvuMR-126" edge="1">
          <mxGeometry width="50" height="50" relative="1" as="geometry">
            <mxPoint x="-8309.66" y="2210" as="sourcePoint" />
            <mxPoint x="-8068.66" y="1888" as="targetPoint" />
          </mxGeometry>
        </mxCell>
        <mxCell id="D2uAuJA1LaHFy1BpvuMR-131" value="" style="endArrow=none;dashed=1;html=1;strokeWidth=2;rounded=0;entryX=0;entryY=0.5;entryDx=0;entryDy=0;exitX=0.992;exitY=0.415;exitDx=0;exitDy=0;exitPerimeter=0;startArrow=open;startFill=0;startSize=12;fontSize=20;fontStyle=1" parent="1" source="D2uAuJA1LaHFy1BpvuMR-25" target="D2uAuJA1LaHFy1BpvuMR-124" edge="1">
          <mxGeometry width="50" height="50" relative="1" as="geometry">
            <mxPoint x="-8309.66" y="2210" as="sourcePoint" />
            <mxPoint x="-8076.16" y="1898" as="targetPoint" />
          </mxGeometry>
        </mxCell>
        <mxCell id="D2uAuJA1LaHFy1BpvuMR-132" value="" style="endArrow=none;dashed=1;html=1;strokeWidth=2;rounded=0;entryX=0;entryY=0.5;entryDx=0;entryDy=0;exitX=1;exitY=0.5;exitDx=0;exitDy=0;startArrow=open;startFill=0;startSize=12;fontSize=20;fontStyle=1" parent="1" source="D2uAuJA1LaHFy1BpvuMR-25" target="D2uAuJA1LaHFy1BpvuMR-125" edge="1">
          <mxGeometry width="50" height="50" relative="1" as="geometry">
            <mxPoint x="-8279.66" y="2230" as="sourcePoint" />
            <mxPoint x="-8048.660000000001" y="1908" as="targetPoint" />
          </mxGeometry>
        </mxCell>
        <mxCell id="D2uAuJA1LaHFy1BpvuMR-133" value="" style="endArrow=none;dashed=1;html=1;strokeWidth=2;rounded=0;entryX=0;entryY=0.5;entryDx=0;entryDy=0;exitX=0.984;exitY=0.623;exitDx=0;exitDy=0;exitPerimeter=0;startArrow=open;startFill=0;startSize=12;fontSize=20;fontStyle=1" parent="1" source="D2uAuJA1LaHFy1BpvuMR-25" target="D2uAuJA1LaHFy1BpvuMR-127" edge="1">
          <mxGeometry width="50" height="50" relative="1" as="geometry">
            <mxPoint x="-8309.66" y="2210" as="sourcePoint" />
            <mxPoint x="-8069.66" y="2370" as="targetPoint" />
          </mxGeometry>
        </mxCell>
        <mxCell id="D2uAuJA1LaHFy1BpvuMR-134" value="" style="endArrow=none;dashed=1;html=1;strokeWidth=2;rounded=0;exitX=0.958;exitY=0.733;exitDx=0;exitDy=0;exitPerimeter=0;startArrow=open;startFill=0;startSize=12;entryX=0;entryY=0.5;entryDx=0;entryDy=0;fontSize=20;fontStyle=1" parent="1" source="D2uAuJA1LaHFy1BpvuMR-25" target="D2uAuJA1LaHFy1BpvuMR-128" edge="1">
          <mxGeometry width="50" height="50" relative="1" as="geometry">
            <mxPoint x="-8319.66" y="2220" as="sourcePoint" />
            <mxPoint x="-8049.660000000001" y="2520" as="targetPoint" />
          </mxGeometry>
        </mxCell>
        <mxCell id="D2uAuJA1LaHFy1BpvuMR-135" value="&amp;lt;&amp;lt;extend&amp;gt;&amp;gt;" style="text;html=1;align=center;verticalAlign=middle;resizable=0;points=[];autosize=1;strokeColor=none;fillColor=none;fontSize=20;fontStyle=1;strokeWidth=2;" parent="1" vertex="1">
          <mxGeometry x="-8236.649999999998" y="2095" width="130" height="40" as="geometry" />
        </mxCell>
        <mxCell id="D2uAuJA1LaHFy1BpvuMR-136" value="&amp;lt;&amp;lt;extend&amp;gt;&amp;gt;" style="text;html=1;align=center;verticalAlign=middle;resizable=0;points=[];autosize=1;strokeColor=none;fillColor=none;fontSize=20;fontStyle=1;strokeWidth=2;" parent="1" vertex="1">
          <mxGeometry x="-8212.5" y="2175" width="130" height="40" as="geometry" />
        </mxCell>
        <mxCell id="D2uAuJA1LaHFy1BpvuMR-137" value="&amp;lt;&amp;lt;extend&amp;gt;&amp;gt;" style="text;html=1;align=center;verticalAlign=middle;resizable=0;points=[];autosize=1;strokeColor=none;fillColor=none;fontSize=20;fontStyle=1;strokeWidth=2;" parent="1" vertex="1">
          <mxGeometry x="-8212.5" y="2222.5" width="130" height="40" as="geometry" />
        </mxCell>
        <mxCell id="D2uAuJA1LaHFy1BpvuMR-138" value="&amp;lt;&amp;lt;extend&amp;gt;&amp;gt;" style="text;html=1;align=center;verticalAlign=middle;resizable=0;points=[];autosize=1;strokeColor=none;fillColor=none;fontSize=20;fontStyle=1;strokeWidth=2;" parent="1" vertex="1">
          <mxGeometry x="-8217.849999999999" y="2262.5" width="130" height="40" as="geometry" />
        </mxCell>
        <mxCell id="D2uAuJA1LaHFy1BpvuMR-139" value="&amp;lt;&amp;lt;extend&amp;gt;&amp;gt;" style="text;html=1;align=center;verticalAlign=middle;resizable=0;points=[];autosize=1;strokeColor=none;fillColor=none;fontSize=20;fontStyle=1;strokeWidth=2;" parent="1" vertex="1">
          <mxGeometry x="-8216.749999999998" y="2330" width="130" height="40" as="geometry" />
        </mxCell>
        <mxCell id="D2uAuJA1LaHFy1BpvuMR-140" value="&amp;lt;&amp;lt;extend&amp;gt;&amp;gt;" style="text;html=1;align=center;verticalAlign=middle;resizable=0;points=[];autosize=1;strokeColor=none;fillColor=none;fontSize=20;fontStyle=1;strokeWidth=2;" parent="1" vertex="1">
          <mxGeometry x="-8216.75" y="2135" width="130" height="40" as="geometry" />
        </mxCell>
        <mxCell id="D2uAuJA1LaHFy1BpvuMR-141" value="HR&lt;div&gt;Head&lt;/div&gt;" style="shape=umlActor;verticalLabelPosition=bottom;verticalAlign=top;html=1;fontSize=20;fontStyle=1;strokeWidth=2;" parent="1" vertex="1">
          <mxGeometry x="-6903.08" y="3460" width="50" height="90" as="geometry" />
        </mxCell>
        <mxCell id="D2uAuJA1LaHFy1BpvuMR-142" value="&lt;font style=&quot;font-size: 20px;&quot;&gt;Generate KPI report&lt;/font&gt;" style="ellipse;whiteSpace=wrap;html=1;fontSize=20;fontStyle=1;strokeWidth=2;" parent="1" vertex="1">
          <mxGeometry x="-8688.92" y="8060" width="374" height="80" as="geometry" />
        </mxCell>
        <mxCell id="D2uAuJA1LaHFy1BpvuMR-143" value="&lt;font style=&quot;font-size: 20px;&quot;&gt;Generate Monthly KPI report&lt;/font&gt;" style="ellipse;whiteSpace=wrap;html=1;fontSize=20;fontStyle=1;strokeWidth=2;" parent="1" vertex="1">
          <mxGeometry x="-8024.070000000001" y="8045" width="326.45" height="85" as="geometry" />
        </mxCell>
        <mxCell id="D2uAuJA1LaHFy1BpvuMR-144" value="&lt;font style=&quot;font-size: 20px;&quot;&gt;Generate Annual KPI report&lt;/font&gt;" style="ellipse;whiteSpace=wrap;html=1;fontSize=20;fontStyle=1;strokeWidth=2;" parent="1" vertex="1">
          <mxGeometry x="-8029.04" y="8150" width="341.42" height="80" as="geometry" />
        </mxCell>
        <mxCell id="D2uAuJA1LaHFy1BpvuMR-145" value="&lt;font style=&quot;font-size: 20px;&quot;&gt;Generate KPI&lt;/font&gt;" style="ellipse;whiteSpace=wrap;html=1;fontSize=20;fontStyle=1;strokeWidth=2;" parent="1" vertex="1">
          <mxGeometry x="-8614.92" y="3860" width="381" height="70" as="geometry" />
        </mxCell>
        <mxCell id="D2uAuJA1LaHFy1BpvuMR-146" value="" style="endArrow=open;dashed=1;html=1;rounded=0;exitX=0;exitY=0.5;exitDx=0;exitDy=0;entryX=1;entryY=0.5;entryDx=0;entryDy=0;endFill=0;endSize=12;fontSize=20;fontStyle=1;strokeWidth=2;" parent="1" source="D2uAuJA1LaHFy1BpvuMR-89" target="D2uAuJA1LaHFy1BpvuMR-17" edge="1">
          <mxGeometry width="50" height="50" relative="1" as="geometry">
            <mxPoint x="-8388.070000000002" y="5850" as="sourcePoint" />
            <mxPoint x="-8338.070000000002" y="5800" as="targetPoint" />
          </mxGeometry>
        </mxCell>
        <mxCell id="D2uAuJA1LaHFy1BpvuMR-147" value="" style="endArrow=open;dashed=1;html=1;rounded=0;exitX=0;exitY=0.5;exitDx=0;exitDy=0;entryX=0.981;entryY=0.644;entryDx=0;entryDy=0;endFill=0;endSize=12;entryPerimeter=0;fontSize=20;fontStyle=1;strokeWidth=2;" parent="1" source="D2uAuJA1LaHFy1BpvuMR-88" target="D2uAuJA1LaHFy1BpvuMR-17" edge="1">
          <mxGeometry width="50" height="50" relative="1" as="geometry">
            <mxPoint x="-9013.070000000002" y="5363" as="sourcePoint" />
            <mxPoint x="-8729.070000000002" y="5388" as="targetPoint" />
          </mxGeometry>
        </mxCell>
        <mxCell id="D2uAuJA1LaHFy1BpvuMR-148" value="" style="endArrow=open;dashed=1;html=1;rounded=0;exitX=0;exitY=0.5;exitDx=0;exitDy=0;entryX=1;entryY=0.5;entryDx=0;entryDy=0;endFill=0;endSize=12;fontSize=20;fontStyle=1;strokeWidth=2;" parent="1" source="D2uAuJA1LaHFy1BpvuMR-65" target="D2uAuJA1LaHFy1BpvuMR-30" edge="1">
          <mxGeometry width="50" height="50" relative="1" as="geometry">
            <mxPoint x="-9001.710000000001" y="5528" as="sourcePoint" />
            <mxPoint x="-8711.710000000001" y="5430" as="targetPoint" />
          </mxGeometry>
        </mxCell>
        <mxCell id="D2uAuJA1LaHFy1BpvuMR-149" value="" style="endArrow=open;dashed=1;html=1;rounded=0;exitX=0;exitY=0.5;exitDx=0;exitDy=0;endFill=0;endSize=12;fontSize=20;fontStyle=1;strokeWidth=2;" parent="1" source="D2uAuJA1LaHFy1BpvuMR-66" edge="1">
          <mxGeometry width="50" height="50" relative="1" as="geometry">
            <mxPoint x="-9006.710000000001" y="5618" as="sourcePoint" />
            <mxPoint x="-8382.900000000001" y="5600" as="targetPoint" />
          </mxGeometry>
        </mxCell>
        <mxCell id="D2uAuJA1LaHFy1BpvuMR-150" value="" style="endArrow=open;dashed=1;html=1;rounded=0;exitX=0;exitY=0.5;exitDx=0;exitDy=0;entryX=1;entryY=0.5;entryDx=0;entryDy=0;endFill=0;endSize=12;fontSize=20;fontStyle=1;strokeWidth=2;" parent="1" source="D2uAuJA1LaHFy1BpvuMR-67" target="D2uAuJA1LaHFy1BpvuMR-29" edge="1">
          <mxGeometry width="50" height="50" relative="1" as="geometry">
            <mxPoint x="-8996.710000000001" y="5628" as="sourcePoint" />
            <mxPoint x="-8715.710000000001" y="5600" as="targetPoint" />
          </mxGeometry>
        </mxCell>
        <mxCell id="D2uAuJA1LaHFy1BpvuMR-151" value="" style="endArrow=open;dashed=1;html=1;rounded=0;exitX=0;exitY=0.5;exitDx=0;exitDy=0;entryX=0.89;entryY=0.8;entryDx=0;entryDy=0;entryPerimeter=0;endFill=0;endSize=12;fontSize=20;fontStyle=1;strokeWidth=2;" parent="1" source="D2uAuJA1LaHFy1BpvuMR-68" target="D2uAuJA1LaHFy1BpvuMR-29" edge="1">
          <mxGeometry width="50" height="50" relative="1" as="geometry">
            <mxPoint x="-8986.710000000001" y="5638" as="sourcePoint" />
            <mxPoint x="-8720.710000000001" y="5770" as="targetPoint" />
          </mxGeometry>
        </mxCell>
        <mxCell id="D2uAuJA1LaHFy1BpvuMR-152" value="" style="endArrow=open;dashed=1;html=1;rounded=0;exitX=0;exitY=0.5;exitDx=0;exitDy=0;entryX=1;entryY=0.5;entryDx=0;entryDy=0;endFill=0;endSize=12;fontSize=20;fontStyle=1;strokeWidth=2;" parent="1" source="D2uAuJA1LaHFy1BpvuMR-69" target="D2uAuJA1LaHFy1BpvuMR-64" edge="1">
          <mxGeometry width="50" height="50" relative="1" as="geometry">
            <mxPoint x="-9009.710000000001" y="5888" as="sourcePoint" />
            <mxPoint x="-8718.710000000001" y="5786" as="targetPoint" />
          </mxGeometry>
        </mxCell>
        <mxCell id="D2uAuJA1LaHFy1BpvuMR-153" value="" style="endArrow=open;dashed=1;html=1;rounded=0;exitX=0;exitY=0.5;exitDx=0;exitDy=0;entryX=0.935;entryY=0.743;entryDx=0;entryDy=0;endFill=0;endSize=12;entryPerimeter=0;fontSize=20;fontStyle=1;strokeWidth=2;" parent="1" source="D2uAuJA1LaHFy1BpvuMR-70" target="D2uAuJA1LaHFy1BpvuMR-64" edge="1">
          <mxGeometry width="50" height="50" relative="1" as="geometry">
            <mxPoint x="-9010.710000000001" y="6008" as="sourcePoint" />
            <mxPoint x="-8710.710000000001" y="6025" as="targetPoint" />
          </mxGeometry>
        </mxCell>
        <mxCell id="D2uAuJA1LaHFy1BpvuMR-154" value="" style="endArrow=open;dashed=1;html=1;rounded=0;exitX=0;exitY=0.5;exitDx=0;exitDy=0;entryX=0.973;entryY=0.643;entryDx=0;entryDy=0;endFill=0;endSize=12;entryPerimeter=0;fontSize=20;fontStyle=1;strokeWidth=2;" parent="1" source="D2uAuJA1LaHFy1BpvuMR-71" target="D2uAuJA1LaHFy1BpvuMR-28" edge="1">
          <mxGeometry width="50" height="50" relative="1" as="geometry">
            <mxPoint x="-8990.710000000001" y="6028" as="sourcePoint" />
            <mxPoint x="-8690.710000000001" y="6045" as="targetPoint" />
          </mxGeometry>
        </mxCell>
        <mxCell id="D2uAuJA1LaHFy1BpvuMR-155" value="" style="endArrow=open;dashed=1;html=1;rounded=0;exitX=0;exitY=0.5;exitDx=0;exitDy=0;entryX=1;entryY=0.5;entryDx=0;entryDy=0;endFill=0;endSize=12;fontSize=20;fontStyle=1;strokeWidth=2;" parent="1" source="D2uAuJA1LaHFy1BpvuMR-72" target="D2uAuJA1LaHFy1BpvuMR-34" edge="1">
          <mxGeometry width="50" height="50" relative="1" as="geometry">
            <mxPoint x="-8998.460000000001" y="6248" as="sourcePoint" />
            <mxPoint x="-8705.460000000001" y="6130" as="targetPoint" />
          </mxGeometry>
        </mxCell>
        <mxCell id="D2uAuJA1LaHFy1BpvuMR-156" value="" style="endArrow=open;dashed=1;html=1;rounded=0;exitX=0;exitY=0.5;exitDx=0;exitDy=0;endFill=0;endSize=12;entryX=0.903;entryY=0.8;entryDx=0;entryDy=0;entryPerimeter=0;fontSize=20;fontStyle=1;strokeWidth=2;" parent="1" source="D2uAuJA1LaHFy1BpvuMR-73" target="D2uAuJA1LaHFy1BpvuMR-34" edge="1">
          <mxGeometry width="50" height="50" relative="1" as="geometry">
            <mxPoint x="-8988.460000000001" y="6258" as="sourcePoint" />
            <mxPoint x="-8708.460000000001" y="6410" as="targetPoint" />
          </mxGeometry>
        </mxCell>
        <mxCell id="D2uAuJA1LaHFy1BpvuMR-157" value="" style="endArrow=open;dashed=1;html=1;rounded=0;exitX=0;exitY=0.5;exitDx=0;exitDy=0;entryX=0.99;entryY=0.389;entryDx=0;entryDy=0;entryPerimeter=0;endFill=0;endSize=12;fontSize=20;fontStyle=1;strokeWidth=2;" parent="1" source="D2uAuJA1LaHFy1BpvuMR-74" target="D2uAuJA1LaHFy1BpvuMR-35" edge="1">
          <mxGeometry width="50" height="50" relative="1" as="geometry">
            <mxPoint x="-8990.460000000001" y="6500" as="sourcePoint" />
            <mxPoint x="-8698.460000000001" y="6420" as="targetPoint" />
          </mxGeometry>
        </mxCell>
        <mxCell id="D2uAuJA1LaHFy1BpvuMR-158" value="" style="endArrow=open;dashed=1;html=1;rounded=0;exitX=0;exitY=0.5;exitDx=0;exitDy=0;entryX=0.971;entryY=0.681;entryDx=0;entryDy=0;endFill=0;endSize=12;entryPerimeter=0;fontSize=20;fontStyle=1;strokeWidth=2;" parent="1" source="D2uAuJA1LaHFy1BpvuMR-75" target="D2uAuJA1LaHFy1BpvuMR-35" edge="1">
          <mxGeometry width="50" height="50" relative="1" as="geometry">
            <mxPoint x="-8972.460000000001" y="6628" as="sourcePoint" />
            <mxPoint x="-8696.460000000001" y="6635" as="targetPoint" />
          </mxGeometry>
        </mxCell>
        <mxCell id="D2uAuJA1LaHFy1BpvuMR-159" value="" style="endArrow=open;dashed=1;html=1;rounded=0;entryX=1;entryY=0.5;entryDx=0;entryDy=0;endFill=0;endSize=12;exitX=0.005;exitY=0.451;exitDx=0;exitDy=0;exitPerimeter=0;fontSize=20;fontStyle=1;strokeWidth=2;" parent="1" source="D2uAuJA1LaHFy1BpvuMR-76" target="D2uAuJA1LaHFy1BpvuMR-41" edge="1">
          <mxGeometry width="50" height="50" relative="1" as="geometry">
            <mxPoint x="-8142.610000000002" y="6832" as="sourcePoint" />
            <mxPoint x="-8704.42" y="6635" as="targetPoint" />
          </mxGeometry>
        </mxCell>
        <mxCell id="D2uAuJA1LaHFy1BpvuMR-160" value="" style="endArrow=open;dashed=1;html=1;rounded=0;exitX=0;exitY=0.5;exitDx=0;exitDy=0;entryX=0.962;entryY=0.694;entryDx=0;entryDy=0;endFill=0;endSize=12;entryPerimeter=0;fontSize=20;fontStyle=1;strokeWidth=2;" parent="1" source="D2uAuJA1LaHFy1BpvuMR-77" target="D2uAuJA1LaHFy1BpvuMR-41" edge="1">
          <mxGeometry width="50" height="50" relative="1" as="geometry">
            <mxPoint x="-8968.42" y="6838" as="sourcePoint" />
            <mxPoint x="-8704.42" y="6835" as="targetPoint" />
          </mxGeometry>
        </mxCell>
        <mxCell id="D2uAuJA1LaHFy1BpvuMR-161" value="" style="endArrow=open;dashed=1;html=1;rounded=0;exitX=0;exitY=0.5;exitDx=0;exitDy=0;entryX=0.971;entryY=0.309;entryDx=0;entryDy=0;endFill=0;endSize=12;entryPerimeter=0;fontSize=20;fontStyle=1;strokeWidth=2;" parent="1" source="D2uAuJA1LaHFy1BpvuMR-78" target="D2uAuJA1LaHFy1BpvuMR-42" edge="1">
          <mxGeometry width="50" height="50" relative="1" as="geometry">
            <mxPoint x="-8968.42" y="6918" as="sourcePoint" />
            <mxPoint x="-8694.42" y="6845" as="targetPoint" />
          </mxGeometry>
        </mxCell>
        <mxCell id="D2uAuJA1LaHFy1BpvuMR-162" value="" style="endArrow=open;dashed=1;html=1;rounded=0;exitX=0;exitY=0.5;exitDx=0;exitDy=0;entryX=0.97;entryY=0.671;entryDx=0;entryDy=0;endFill=0;endSize=12;entryPerimeter=0;fontSize=20;fontStyle=1;strokeWidth=2;" parent="1" source="D2uAuJA1LaHFy1BpvuMR-79" target="D2uAuJA1LaHFy1BpvuMR-42" edge="1">
          <mxGeometry width="50" height="50" relative="1" as="geometry">
            <mxPoint x="-8965.42" y="7068" as="sourcePoint" />
            <mxPoint x="-8691.42" y="7105" as="targetPoint" />
          </mxGeometry>
        </mxCell>
        <mxCell id="D2uAuJA1LaHFy1BpvuMR-163" value="" style="endArrow=open;dashed=1;html=1;rounded=0;exitX=0.014;exitY=0.385;exitDx=0;exitDy=0;endFill=0;endSize=12;exitPerimeter=0;fontSize=20;fontStyle=1;strokeWidth=2;" parent="1" source="D2uAuJA1LaHFy1BpvuMR-80" target="D2uAuJA1LaHFy1BpvuMR-43" edge="1">
          <mxGeometry width="50" height="50" relative="1" as="geometry">
            <mxPoint x="-8965.42" y="7148" as="sourcePoint" />
            <mxPoint x="-8322.610000000002" y="7270" as="targetPoint" />
          </mxGeometry>
        </mxCell>
        <mxCell id="D2uAuJA1LaHFy1BpvuMR-164" value="" style="endArrow=open;dashed=1;html=1;rounded=0;exitX=0;exitY=0.5;exitDx=0;exitDy=0;entryX=0.976;entryY=0.63;entryDx=0;entryDy=0;entryPerimeter=0;endFill=0;endSize=12;fontSize=20;fontStyle=1;strokeWidth=2;" parent="1" source="D2uAuJA1LaHFy1BpvuMR-81" target="D2uAuJA1LaHFy1BpvuMR-43" edge="1">
          <mxGeometry width="50" height="50" relative="1" as="geometry">
            <mxPoint x="-8955.42" y="7158" as="sourcePoint" />
            <mxPoint x="-8671.42" y="7125" as="targetPoint" />
          </mxGeometry>
        </mxCell>
        <mxCell id="D2uAuJA1LaHFy1BpvuMR-165" value="" style="endArrow=open;dashed=1;html=1;rounded=0;endFill=0;endSize=12;exitX=0;exitY=0.5;exitDx=0;exitDy=0;fontSize=20;fontStyle=1;strokeWidth=2;" parent="1" source="D2uAuJA1LaHFy1BpvuMR-82" edge="1">
          <mxGeometry width="50" height="50" relative="1" as="geometry">
            <mxPoint x="-8132.610000000002" y="7470" as="sourcePoint" />
            <mxPoint x="-8322.610000000002" y="7470" as="targetPoint" />
          </mxGeometry>
        </mxCell>
        <mxCell id="D2uAuJA1LaHFy1BpvuMR-166" value="" style="endArrow=open;dashed=1;html=1;rounded=0;exitX=0;exitY=0.5;exitDx=0;exitDy=0;entryX=0.94;entryY=0.724;entryDx=0;entryDy=0;endFill=0;endSize=12;entryPerimeter=0;fontSize=20;fontStyle=1;strokeWidth=2;" parent="1" source="D2uAuJA1LaHFy1BpvuMR-83" target="D2uAuJA1LaHFy1BpvuMR-44" edge="1">
          <mxGeometry width="50" height="50" relative="1" as="geometry">
            <mxPoint x="-8963.42" y="7478" as="sourcePoint" />
            <mxPoint x="-8683.42" y="7485" as="targetPoint" />
          </mxGeometry>
        </mxCell>
        <mxCell id="D2uAuJA1LaHFy1BpvuMR-167" value="" style="endArrow=open;dashed=1;html=1;rounded=0;exitX=0;exitY=0.5;exitDx=0;exitDy=0;endFill=0;endSize=12;entryX=0.979;entryY=0.347;entryDx=0;entryDy=0;entryPerimeter=0;fontSize=20;fontStyle=1;strokeWidth=2;" parent="1" source="D2uAuJA1LaHFy1BpvuMR-84" target="D2uAuJA1LaHFy1BpvuMR-45" edge="1">
          <mxGeometry width="50" height="50" relative="1" as="geometry">
            <mxPoint x="-8963.42" y="7558" as="sourcePoint" />
            <mxPoint x="-8972.610000000002" y="7790" as="targetPoint" />
            <Array as="points" />
          </mxGeometry>
        </mxCell>
        <mxCell id="D2uAuJA1LaHFy1BpvuMR-168" value="" style="endArrow=open;dashed=1;html=1;rounded=0;exitX=0;exitY=0.5;exitDx=0;exitDy=0;endFill=0;endSize=12;entryX=0.969;entryY=0.669;entryDx=0;entryDy=0;entryPerimeter=0;fontSize=20;fontStyle=1;strokeWidth=2;" parent="1" source="D2uAuJA1LaHFy1BpvuMR-85" target="D2uAuJA1LaHFy1BpvuMR-45" edge="1">
          <mxGeometry width="50" height="50" relative="1" as="geometry">
            <mxPoint x="-8959.42" y="7698" as="sourcePoint" />
            <mxPoint x="-8332.610000000002" y="7720" as="targetPoint" />
            <Array as="points" />
          </mxGeometry>
        </mxCell>
        <mxCell id="D2uAuJA1LaHFy1BpvuMR-169" value="" style="endArrow=open;dashed=1;html=1;rounded=0;endFill=0;endSize=12;entryX=0.992;entryY=0.447;entryDx=0;entryDy=0;entryPerimeter=0;exitX=0.007;exitY=0.407;exitDx=0;exitDy=0;exitPerimeter=0;fontSize=20;fontStyle=1;strokeWidth=2;" parent="1" source="D2uAuJA1LaHFy1BpvuMR-86" target="D2uAuJA1LaHFy1BpvuMR-46" edge="1">
          <mxGeometry width="50" height="50" relative="1" as="geometry">
            <mxPoint x="-8112.610000000002" y="7888" as="sourcePoint" />
            <mxPoint x="-8322.610000000002" y="7888" as="targetPoint" />
            <Array as="points" />
          </mxGeometry>
        </mxCell>
        <mxCell id="D2uAuJA1LaHFy1BpvuMR-170" value="" style="endArrow=open;dashed=1;html=1;rounded=0;exitX=0;exitY=0.5;exitDx=0;exitDy=0;entryX=0.935;entryY=0.756;entryDx=0;entryDy=0;entryPerimeter=0;endFill=0;endSize=12;fontSize=20;fontStyle=1;strokeWidth=2;" parent="1" source="D2uAuJA1LaHFy1BpvuMR-87" target="D2uAuJA1LaHFy1BpvuMR-46" edge="1">
          <mxGeometry width="50" height="50" relative="1" as="geometry">
            <mxPoint x="-8949.42" y="7788" as="sourcePoint" />
            <mxPoint x="-8659.42" y="7738" as="targetPoint" />
            <Array as="points" />
          </mxGeometry>
        </mxCell>
        <mxCell id="D2uAuJA1LaHFy1BpvuMR-171" value="" style="endArrow=open;dashed=1;html=1;rounded=0;entryX=0.993;entryY=0.4;entryDx=0;entryDy=0;entryPerimeter=0;endFill=0;endSize=12;exitX=0;exitY=0.465;exitDx=0;exitDy=0;exitPerimeter=0;fontSize=20;fontStyle=1;strokeWidth=2;" parent="1" source="D2uAuJA1LaHFy1BpvuMR-143" target="D2uAuJA1LaHFy1BpvuMR-142" edge="1">
          <mxGeometry width="50" height="50" relative="1" as="geometry">
            <mxPoint x="-8122.610000000002" y="8080" as="sourcePoint" />
            <mxPoint x="-8652.42" y="7918" as="targetPoint" />
            <Array as="points" />
          </mxGeometry>
        </mxCell>
        <mxCell id="D2uAuJA1LaHFy1BpvuMR-172" value="" style="endArrow=open;dashed=1;html=1;rounded=0;exitX=0;exitY=0.5;exitDx=0;exitDy=0;entryX=0.963;entryY=0.7;entryDx=0;entryDy=0;endFill=0;endSize=12;entryPerimeter=0;fontSize=20;fontStyle=1;strokeWidth=2;" parent="1" source="D2uAuJA1LaHFy1BpvuMR-144" target="D2uAuJA1LaHFy1BpvuMR-142" edge="1">
          <mxGeometry width="50" height="50" relative="1" as="geometry">
            <mxPoint x="-8939.42" y="7988" as="sourcePoint" />
            <mxPoint x="-8642.42" y="7928" as="targetPoint" />
            <Array as="points" />
          </mxGeometry>
        </mxCell>
        <mxCell id="D2uAuJA1LaHFy1BpvuMR-173" value="" style="endArrow=none;dashed=1;html=1;rounded=0;exitX=0;exitY=0.5;exitDx=0;exitDy=0;startArrow=open;startFill=0;startSize=12;entryX=0.954;entryY=0.742;entryDx=0;entryDy=0;entryPerimeter=0;fontSize=20;fontStyle=1;strokeWidth=2;" parent="1" source="D2uAuJA1LaHFy1BpvuMR-90" target="D2uAuJA1LaHFy1BpvuMR-14" edge="1">
          <mxGeometry width="50" height="50" relative="1" as="geometry">
            <mxPoint x="-8778.070000000002" y="4940" as="sourcePoint" />
            <mxPoint x="-8359.87" y="4898" as="targetPoint" />
          </mxGeometry>
        </mxCell>
        <mxCell id="D2uAuJA1LaHFy1BpvuMR-174" value="" style="endArrow=open;dashed=1;html=1;rounded=0;exitX=0.016;exitY=0.42;exitDx=0;exitDy=0;exitPerimeter=0;endFill=0;endSize=12;entryX=0.956;entryY=0.707;entryDx=0;entryDy=0;entryPerimeter=0;fontSize=20;fontStyle=1;strokeWidth=2;" parent="1" source="D2uAuJA1LaHFy1BpvuMR-99" target="D2uAuJA1LaHFy1BpvuMR-26" edge="1">
          <mxGeometry width="50" height="50" relative="1" as="geometry">
            <mxPoint x="-8990.109999999999" y="4785" as="sourcePoint" />
            <mxPoint x="-8723.070000000002" y="4630" as="targetPoint" />
          </mxGeometry>
        </mxCell>
        <mxCell id="D2uAuJA1LaHFy1BpvuMR-175" value="" style="endArrow=open;dashed=1;html=1;rounded=0;exitX=0;exitY=0.5;exitDx=0;exitDy=0;endFill=0;endSize=12;entryX=0.999;entryY=0.546;entryDx=0;entryDy=0;entryPerimeter=0;fontSize=20;fontStyle=1;strokeWidth=2;" parent="1" source="D2uAuJA1LaHFy1BpvuMR-98" target="D2uAuJA1LaHFy1BpvuMR-26" edge="1">
          <mxGeometry width="50" height="50" relative="1" as="geometry">
            <mxPoint x="-8266.5" y="4615" as="sourcePoint" />
            <mxPoint x="-8721.99" y="4620" as="targetPoint" />
          </mxGeometry>
        </mxCell>
        <mxCell id="D2uAuJA1LaHFy1BpvuMR-176" value="" style="endArrow=open;dashed=1;html=1;rounded=0;exitX=0;exitY=0.5;exitDx=0;exitDy=0;entryX=0.989;entryY=0.396;entryDx=0;entryDy=0;entryPerimeter=0;endFill=0;endSize=12;fontSize=20;fontStyle=1;strokeWidth=2;" parent="1" source="D2uAuJA1LaHFy1BpvuMR-97" target="D2uAuJA1LaHFy1BpvuMR-26" edge="1">
          <mxGeometry width="50" height="50" relative="1" as="geometry">
            <mxPoint x="-8978.53" y="4763" as="sourcePoint" />
            <mxPoint x="-8715.53" y="4610" as="targetPoint" />
          </mxGeometry>
        </mxCell>
        <mxCell id="D2uAuJA1LaHFy1BpvuMR-177" value="" style="endArrow=open;dashed=1;html=1;rounded=0;exitX=0;exitY=0.5;exitDx=0;exitDy=0;entryX=0.959;entryY=0.293;entryDx=0;entryDy=0;entryPerimeter=0;endFill=0;endSize=12;fontSize=20;fontStyle=1;strokeWidth=2;" parent="1" source="D2uAuJA1LaHFy1BpvuMR-96" target="D2uAuJA1LaHFy1BpvuMR-26" edge="1">
          <mxGeometry width="50" height="50" relative="1" as="geometry">
            <mxPoint x="-8956.070000000002" y="4813" as="sourcePoint" />
            <mxPoint x="-8728.070000000002" y="4630" as="targetPoint" />
          </mxGeometry>
        </mxCell>
        <mxCell id="D2uAuJA1LaHFy1BpvuMR-178" value="" style="endArrow=open;dashed=1;html=1;rounded=0;exitX=0;exitY=0.5;exitDx=0;exitDy=0;entryX=0.906;entryY=0.214;entryDx=0;entryDy=0;entryPerimeter=0;endFill=0;endSize=12;fontSize=20;fontStyle=1;strokeWidth=2;" parent="1" source="D2uAuJA1LaHFy1BpvuMR-95" target="D2uAuJA1LaHFy1BpvuMR-26" edge="1">
          <mxGeometry width="50" height="50" relative="1" as="geometry">
            <mxPoint x="-8946.070000000002" y="4823" as="sourcePoint" />
            <mxPoint x="-8683.070000000002" y="4670" as="targetPoint" />
          </mxGeometry>
        </mxCell>
        <mxCell id="D2uAuJA1LaHFy1BpvuMR-179" value="" style="endArrow=open;dashed=1;html=1;rounded=0;exitX=0;exitY=0.5;exitDx=0;exitDy=0;entryX=1;entryY=0;entryDx=0;entryDy=0;endFill=0;endSize=12;fontSize=20;fontStyle=1;strokeWidth=2;" parent="1" source="D2uAuJA1LaHFy1BpvuMR-94" target="D2uAuJA1LaHFy1BpvuMR-26" edge="1">
          <mxGeometry width="50" height="50" relative="1" as="geometry">
            <mxPoint x="-8936.070000000002" y="4833" as="sourcePoint" />
            <mxPoint x="-8673.070000000002" y="4680" as="targetPoint" />
          </mxGeometry>
        </mxCell>
        <mxCell id="D2uAuJA1LaHFy1BpvuMR-191" value="&lt;font style=&quot;font-size: 20px;&quot;&gt;&amp;lt;&amp;lt;include&amp;gt;&amp;gt;&lt;/font&gt;" style="text;html=1;align=center;verticalAlign=middle;resizable=0;points=[];autosize=1;strokeColor=none;fillColor=none;fontSize=20;fontStyle=1;strokeWidth=2;" parent="1" vertex="1">
          <mxGeometry x="-8326.43" y="4800" width="130" height="40" as="geometry" />
        </mxCell>
        <mxCell id="D2uAuJA1LaHFy1BpvuMR-195" value="&lt;font style=&quot;font-size: 20px;&quot;&gt;&amp;lt;&amp;lt;extend&amp;gt;&amp;gt;&lt;/font&gt;" style="text;html=1;align=center;verticalAlign=middle;resizable=0;points=[];autosize=1;strokeColor=none;fillColor=none;fontSize=20;fontStyle=1;strokeWidth=2;" parent="1" vertex="1">
          <mxGeometry x="-8320.320000000002" y="4300" width="130" height="40" as="geometry" />
        </mxCell>
        <mxCell id="D2uAuJA1LaHFy1BpvuMR-196" value="&lt;font style=&quot;font-size: 20px;&quot;&gt;&amp;lt;&amp;lt;extend&amp;gt;&amp;gt;&lt;/font&gt;" style="text;html=1;align=center;verticalAlign=middle;resizable=0;points=[];autosize=1;strokeColor=none;fillColor=none;fontSize=20;fontStyle=1;strokeWidth=2;" parent="1" vertex="1">
          <mxGeometry x="-8276.26" y="4450" width="130" height="40" as="geometry" />
        </mxCell>
        <mxCell id="D2uAuJA1LaHFy1BpvuMR-197" value="&lt;font style=&quot;font-size: 20px;&quot;&gt;&amp;lt;&amp;lt;extend&amp;gt;&amp;gt;&lt;/font&gt;" style="text;html=1;align=center;verticalAlign=middle;resizable=0;points=[];autosize=1;strokeColor=none;fillColor=none;fontSize=20;fontStyle=1;strokeWidth=2;" parent="1" vertex="1">
          <mxGeometry x="-8266.500000000002" y="4520" width="130" height="40" as="geometry" />
        </mxCell>
        <mxCell id="D2uAuJA1LaHFy1BpvuMR-199" value="&lt;font style=&quot;font-size: 20px;&quot;&gt;&amp;lt;&amp;lt;extend&amp;gt;&amp;gt;&lt;/font&gt;" style="text;html=1;align=center;verticalAlign=middle;resizable=0;points=[];autosize=1;strokeColor=none;fillColor=none;fontSize=20;fontStyle=1;strokeWidth=2;" parent="1" vertex="1">
          <mxGeometry x="-8272.850000000002" y="4660" width="130" height="40" as="geometry" />
        </mxCell>
        <mxCell id="D2uAuJA1LaHFy1BpvuMR-200" value="&lt;font style=&quot;font-size: 20px;&quot;&gt;&amp;lt;&amp;lt;extend&amp;gt;&amp;gt;&lt;/font&gt;" style="text;html=1;align=center;verticalAlign=middle;resizable=0;points=[];autosize=1;strokeColor=none;fillColor=none;fontSize=20;fontStyle=1;strokeWidth=2;" parent="1" vertex="1">
          <mxGeometry x="-8296.370000000003" y="4390" width="130" height="40" as="geometry" />
        </mxCell>
        <mxCell id="D2uAuJA1LaHFy1BpvuMR-201" value="&lt;font style=&quot;font-size: 20px;&quot;&gt;&amp;lt;&amp;lt;extend&amp;gt;&amp;gt;&lt;/font&gt;" style="text;html=1;align=center;verticalAlign=middle;resizable=0;points=[];autosize=1;strokeColor=none;fillColor=none;fontSize=20;fontStyle=1;strokeWidth=2;" parent="1" vertex="1">
          <mxGeometry x="-8326.430000000002" y="5332.5" width="130" height="40" as="geometry" />
        </mxCell>
        <mxCell id="D2uAuJA1LaHFy1BpvuMR-202" value="&lt;font style=&quot;font-size: 20px;&quot;&gt;&amp;lt;&amp;lt;extend&amp;gt;&amp;gt;&lt;/font&gt;" style="text;html=1;align=center;verticalAlign=middle;resizable=0;points=[];autosize=1;strokeColor=none;fillColor=none;fontSize=20;fontStyle=1;strokeWidth=2;" parent="1" vertex="1">
          <mxGeometry x="-8312.960000000001" y="6360" width="130" height="40" as="geometry" />
        </mxCell>
        <mxCell id="D2uAuJA1LaHFy1BpvuMR-203" value="&lt;font style=&quot;font-size: 20px;&quot;&gt;&amp;lt;&amp;lt;extend&amp;gt;&amp;gt;&lt;/font&gt;" style="text;html=1;align=center;verticalAlign=middle;resizable=0;points=[];autosize=1;strokeColor=none;fillColor=none;fontSize=20;fontStyle=1;strokeWidth=2;" parent="1" vertex="1">
          <mxGeometry x="-8309.53" y="5382.5" width="130" height="40" as="geometry" />
        </mxCell>
        <mxCell id="D2uAuJA1LaHFy1BpvuMR-204" value="&lt;font style=&quot;font-size: 20px;&quot;&gt;&amp;lt;&amp;lt;extend&amp;gt;&amp;gt;&lt;/font&gt;" style="text;html=1;align=center;verticalAlign=middle;resizable=0;points=[];autosize=1;strokeColor=none;fillColor=none;fontSize=20;fontStyle=1;strokeWidth=2;" parent="1" vertex="1">
          <mxGeometry x="-8280.300000000001" y="6230" width="130" height="40" as="geometry" />
        </mxCell>
        <mxCell id="D2uAuJA1LaHFy1BpvuMR-205" value="&lt;font style=&quot;font-size: 20px;&quot;&gt;&amp;lt;&amp;lt;extend&amp;gt;&amp;gt;&lt;/font&gt;" style="text;html=1;align=center;verticalAlign=middle;resizable=0;points=[];autosize=1;strokeColor=none;fillColor=none;fontSize=20;fontStyle=1;strokeWidth=2;" parent="1" vertex="1">
          <mxGeometry x="-8276.26" y="6025" width="130" height="40" as="geometry" />
        </mxCell>
        <mxCell id="D2uAuJA1LaHFy1BpvuMR-206" value="&lt;font style=&quot;font-size: 20px;&quot;&gt;&amp;lt;&amp;lt;extend&amp;gt;&amp;gt;&lt;/font&gt;" style="text;html=1;align=center;verticalAlign=middle;resizable=0;points=[];autosize=1;strokeColor=none;fillColor=none;fontSize=20;fontStyle=1;strokeWidth=2;" parent="1" vertex="1">
          <mxGeometry x="-8234.230000000001" y="5967.5" width="130" height="40" as="geometry" />
        </mxCell>
        <mxCell id="D2uAuJA1LaHFy1BpvuMR-207" value="&lt;font style=&quot;font-size: 20px;&quot;&gt;&amp;lt;&amp;lt;extend&amp;gt;&amp;gt;&lt;/font&gt;" style="text;html=1;align=center;verticalAlign=middle;resizable=0;points=[];autosize=1;strokeColor=none;fillColor=none;fontSize=20;fontStyle=1;strokeWidth=2;" parent="1" vertex="1">
          <mxGeometry x="-8298.130000000001" y="5790" width="130" height="40" as="geometry" />
        </mxCell>
        <mxCell id="D2uAuJA1LaHFy1BpvuMR-208" value="&lt;font style=&quot;font-size: 20px;&quot;&gt;&amp;lt;&amp;lt;extend&amp;gt;&amp;gt;&lt;/font&gt;" style="text;html=1;align=center;verticalAlign=middle;resizable=0;points=[];autosize=1;strokeColor=none;fillColor=none;fontSize=20;fontStyle=1;strokeWidth=2;" parent="1" vertex="1">
          <mxGeometry x="-8312.960000000001" y="5740" width="130" height="40" as="geometry" />
        </mxCell>
        <mxCell id="D2uAuJA1LaHFy1BpvuMR-209" value="&lt;font style=&quot;font-size: 20px;&quot;&gt;&amp;lt;&amp;lt;extend&amp;gt;&amp;gt;&lt;/font&gt;" style="text;html=1;align=center;verticalAlign=middle;resizable=0;points=[];autosize=1;strokeColor=none;fillColor=none;fontSize=20;fontStyle=1;strokeWidth=2;" parent="1" vertex="1">
          <mxGeometry x="-8252.760000000002" y="5595" width="130" height="40" as="geometry" />
        </mxCell>
        <mxCell id="D2uAuJA1LaHFy1BpvuMR-210" value="&lt;font style=&quot;font-size: 20px;&quot;&gt;&amp;lt;&amp;lt;extend&amp;gt;&amp;gt;&lt;/font&gt;" style="text;html=1;align=center;verticalAlign=middle;resizable=0;points=[];autosize=1;strokeColor=none;fillColor=none;fontSize=20;fontStyle=1;strokeWidth=2;" parent="1" vertex="1">
          <mxGeometry x="-8301.880000000001" y="5537.5" width="130" height="40" as="geometry" />
        </mxCell>
        <mxCell id="D2uAuJA1LaHFy1BpvuMR-211" value="&lt;font style=&quot;font-size: 20px;&quot;&gt;&amp;lt;&amp;lt;extend&amp;gt;&amp;gt;&lt;/font&gt;" style="text;html=1;align=center;verticalAlign=middle;resizable=0;points=[];autosize=1;strokeColor=none;fillColor=none;fontSize=20;fontStyle=1;strokeWidth=2;" parent="1" vertex="1">
          <mxGeometry x="-8309.900000000003" y="7037.5" width="130" height="40" as="geometry" />
        </mxCell>
        <mxCell id="D2uAuJA1LaHFy1BpvuMR-212" value="&lt;font style=&quot;font-size: 20px;&quot;&gt;&amp;lt;&amp;lt;extend&amp;gt;&amp;gt;&lt;/font&gt;" style="text;html=1;align=center;verticalAlign=middle;resizable=0;points=[];autosize=1;strokeColor=none;fillColor=none;fontSize=20;fontStyle=1;strokeWidth=2;" parent="1" vertex="1">
          <mxGeometry x="-8260.28" y="6850" width="130" height="40" as="geometry" />
        </mxCell>
        <mxCell id="D2uAuJA1LaHFy1BpvuMR-213" value="&lt;font style=&quot;font-size: 20px;&quot;&gt;&amp;lt;&amp;lt;extend&amp;gt;&amp;gt;&lt;/font&gt;" style="text;html=1;align=center;verticalAlign=middle;resizable=0;points=[];autosize=1;strokeColor=none;fillColor=none;fontSize=20;fontStyle=1;strokeWidth=2;" parent="1" vertex="1">
          <mxGeometry x="-8259.210000000003" y="6790" width="130" height="40" as="geometry" />
        </mxCell>
        <mxCell id="D2uAuJA1LaHFy1BpvuMR-214" value="&lt;font style=&quot;font-size: 20px;&quot;&gt;&amp;lt;&amp;lt;extend&amp;gt;&amp;gt;&lt;/font&gt;" style="text;html=1;align=center;verticalAlign=middle;resizable=0;points=[];autosize=1;strokeColor=none;fillColor=none;fontSize=20;fontStyle=1;strokeWidth=2;" parent="1" vertex="1">
          <mxGeometry x="-8288.460000000001" y="6640" width="130" height="40" as="geometry" />
        </mxCell>
        <mxCell id="D2uAuJA1LaHFy1BpvuMR-215" value="&lt;font style=&quot;font-size: 20px;&quot;&gt;&amp;lt;&amp;lt;extend&amp;gt;&amp;gt;&lt;/font&gt;" style="text;html=1;align=center;verticalAlign=middle;resizable=0;points=[];autosize=1;strokeColor=none;fillColor=none;fontSize=20;fontStyle=1;strokeWidth=2;" parent="1" vertex="1">
          <mxGeometry x="-8312.960000000001" y="6600" width="130" height="40" as="geometry" />
        </mxCell>
        <mxCell id="D2uAuJA1LaHFy1BpvuMR-216" value="&lt;font style=&quot;font-size: 20px;&quot;&gt;&amp;lt;&amp;lt;extend&amp;gt;&amp;gt;&lt;/font&gt;" style="text;html=1;align=center;verticalAlign=middle;resizable=0;points=[];autosize=1;strokeColor=none;fillColor=none;fontSize=20;fontStyle=1;strokeWidth=2;" parent="1" vertex="1">
          <mxGeometry x="-8307.940000000002" y="6420" width="130" height="40" as="geometry" />
        </mxCell>
        <mxCell id="D2uAuJA1LaHFy1BpvuMR-217" value="&lt;font style=&quot;font-size: 20px;&quot;&gt;&amp;lt;&amp;lt;extend&amp;gt;&amp;gt;&lt;/font&gt;" style="text;html=1;align=center;verticalAlign=middle;resizable=0;points=[];autosize=1;strokeColor=none;fillColor=none;fontSize=20;fontStyle=1;strokeWidth=2;" parent="1" vertex="1">
          <mxGeometry x="-8263.020000000002" y="7480" width="130" height="40" as="geometry" />
        </mxCell>
        <mxCell id="D2uAuJA1LaHFy1BpvuMR-218" value="&lt;font style=&quot;font-size: 20px;&quot;&gt;&amp;lt;&amp;lt;extend&amp;gt;&amp;gt;&lt;/font&gt;" style="text;html=1;align=center;verticalAlign=middle;resizable=0;points=[];autosize=1;strokeColor=none;fillColor=none;fontSize=20;fontStyle=1;strokeWidth=2;" parent="1" vertex="1">
          <mxGeometry x="-8288.460000000003" y="7432.5" width="130" height="40" as="geometry" />
        </mxCell>
        <mxCell id="D2uAuJA1LaHFy1BpvuMR-219" value="&lt;font style=&quot;font-size: 20px;&quot;&gt;&amp;lt;&amp;lt;extend&amp;gt;&amp;gt;&lt;/font&gt;" style="text;html=1;align=center;verticalAlign=middle;resizable=0;points=[];autosize=1;strokeColor=none;fillColor=none;fontSize=20;fontStyle=1;strokeWidth=2;" parent="1" vertex="1">
          <mxGeometry x="-8282.880000000003" y="7280" width="130" height="40" as="geometry" />
        </mxCell>
        <mxCell id="D2uAuJA1LaHFy1BpvuMR-220" value="&lt;font style=&quot;font-size: 20px;&quot;&gt;&amp;lt;&amp;lt;extend&amp;gt;&amp;gt;&lt;/font&gt;" style="text;html=1;align=center;verticalAlign=middle;resizable=0;points=[];autosize=1;strokeColor=none;fillColor=none;fontSize=20;fontStyle=1;strokeWidth=2;" parent="1" vertex="1">
          <mxGeometry x="-8298.130000000003" y="7230" width="130" height="40" as="geometry" />
        </mxCell>
        <mxCell id="D2uAuJA1LaHFy1BpvuMR-221" value="&lt;font style=&quot;font-size: 20px;&quot;&gt;&amp;lt;&amp;lt;extend&amp;gt;&amp;gt;&lt;/font&gt;" style="text;html=1;align=center;verticalAlign=middle;resizable=0;points=[];autosize=1;strokeColor=none;fillColor=none;fontSize=20;fontStyle=1;strokeWidth=2;" parent="1" vertex="1">
          <mxGeometry x="-8272.610000000002" y="7090" width="130" height="40" as="geometry" />
        </mxCell>
        <mxCell id="D2uAuJA1LaHFy1BpvuMR-222" value="&lt;font style=&quot;font-size: 20px;&quot;&gt;&amp;lt;&amp;lt;extend&amp;gt;&amp;gt;&lt;/font&gt;" style="text;html=1;align=center;verticalAlign=middle;resizable=0;points=[];autosize=1;strokeColor=none;fillColor=none;fontSize=20;fontStyle=1;strokeWidth=2;" parent="1" vertex="1">
          <mxGeometry x="-8272.610000000002" y="8050" width="130" height="40" as="geometry" />
        </mxCell>
        <mxCell id="D2uAuJA1LaHFy1BpvuMR-223" value="&lt;font style=&quot;font-size: 20px;&quot;&gt;&amp;lt;&amp;lt;extend&amp;gt;&amp;gt;&lt;/font&gt;" style="text;html=1;align=center;verticalAlign=middle;resizable=0;points=[];autosize=1;strokeColor=none;fillColor=none;fontSize=20;fontStyle=1;strokeWidth=2;" parent="1" vertex="1">
          <mxGeometry x="-8259.210000000001" y="7910" width="130" height="40" as="geometry" />
        </mxCell>
        <mxCell id="D2uAuJA1LaHFy1BpvuMR-224" value="&lt;font style=&quot;font-size: 20px;&quot;&gt;&amp;lt;&amp;lt;extend&amp;gt;&amp;gt;&lt;/font&gt;" style="text;html=1;align=center;verticalAlign=middle;resizable=0;points=[];autosize=1;strokeColor=none;fillColor=none;fontSize=20;fontStyle=1;strokeWidth=2;" parent="1" vertex="1">
          <mxGeometry x="-8260.28" y="7850" width="130" height="40" as="geometry" />
        </mxCell>
        <mxCell id="D2uAuJA1LaHFy1BpvuMR-225" value="&lt;font style=&quot;font-size: 20px;&quot;&gt;&amp;lt;&amp;lt;extend&amp;gt;&amp;gt;&lt;/font&gt;" style="text;html=1;align=center;verticalAlign=middle;resizable=0;points=[];autosize=1;strokeColor=none;fillColor=none;fontSize=20;fontStyle=1;strokeWidth=2;" parent="1" vertex="1">
          <mxGeometry x="-8247.85" y="7710" width="130" height="40" as="geometry" />
        </mxCell>
        <mxCell id="D2uAuJA1LaHFy1BpvuMR-226" value="&lt;font style=&quot;font-size: 20px;&quot;&gt;&amp;lt;&amp;lt;extend&amp;gt;&amp;gt;&lt;/font&gt;" style="text;html=1;align=center;verticalAlign=middle;resizable=0;points=[];autosize=1;strokeColor=none;fillColor=none;fontSize=20;fontStyle=1;strokeWidth=2;" parent="1" vertex="1">
          <mxGeometry x="-8280.300000000001" y="7650" width="130" height="40" as="geometry" />
        </mxCell>
        <mxCell id="D2uAuJA1LaHFy1BpvuMR-227" value="&lt;font style=&quot;font-size: 20px;&quot;&gt;&amp;lt;&amp;lt;extend&amp;gt;&amp;gt;&lt;/font&gt;" style="text;html=1;align=center;verticalAlign=middle;resizable=0;points=[];autosize=1;strokeColor=none;fillColor=none;fontSize=20;fontStyle=1;strokeWidth=2;" parent="1" vertex="1">
          <mxGeometry x="-8267.300000000001" y="8120" width="130" height="40" as="geometry" />
        </mxCell>
        <mxCell id="D2uAuJA1LaHFy1BpvuMR-228" value="&lt;font style=&quot;font-size: 20px;&quot;&gt;Mark Attendance&lt;/font&gt;" style="ellipse;whiteSpace=wrap;html=1;fontSize=20;fontStyle=1;strokeWidth=2;" parent="1" vertex="1">
          <mxGeometry x="-8724.230000000001" y="820" width="369" height="80" as="geometry" />
        </mxCell>
        <mxCell id="D2uAuJA1LaHFy1BpvuMR-229" value="" style="endArrow=none;html=1;rounded=0;exitX=0;exitY=0.5;exitDx=0;exitDy=0;fontSize=20;fontStyle=1;strokeWidth=2;" parent="1" source="D2uAuJA1LaHFy1BpvuMR-228" edge="1">
          <mxGeometry width="50" height="50" relative="1" as="geometry">
            <mxPoint x="-8730.880000000001" y="660" as="sourcePoint" />
            <mxPoint x="-9480" y="720" as="targetPoint" />
          </mxGeometry>
        </mxCell>
        <mxCell id="D2uAuJA1LaHFy1BpvuMR-231" value="" style="endArrow=open;html=1;rounded=0;entryX=0;entryY=0.5;entryDx=0;entryDy=0;exitX=0.983;exitY=0.368;exitDx=0;exitDy=0;exitPerimeter=0;endFill=0;startArrow=none;startFill=0;endSize=12;startSize=6;dashed=1;fontSize=20;fontStyle=1;strokeWidth=2;" parent="1" source="D2uAuJA1LaHFy1BpvuMR-228" target="D2uAuJA1LaHFy1BpvuMR-232" edge="1">
          <mxGeometry width="50" height="50" relative="1" as="geometry">
            <mxPoint x="-8365.230000000001" y="850" as="sourcePoint" />
            <mxPoint x="-8315.230000000001" y="800" as="targetPoint" />
          </mxGeometry>
        </mxCell>
        <mxCell id="D2uAuJA1LaHFy1BpvuMR-232" value="&lt;font style=&quot;font-size: 20px;&quot;&gt;Mark CheckIN Time&lt;/font&gt;" style="ellipse;whiteSpace=wrap;html=1;fontSize=20;fontStyle=1;strokeWidth=2;" parent="1" vertex="1">
          <mxGeometry x="-8239.160000000002" y="810" width="214" height="80" as="geometry" />
        </mxCell>
        <mxCell id="D2uAuJA1LaHFy1BpvuMR-233" value="&lt;font style=&quot;font-size: 20px;&quot;&gt;Mark CheckOutTime&lt;/font&gt;" style="ellipse;whiteSpace=wrap;html=1;fontSize=20;fontStyle=1;strokeWidth=2;" parent="1" vertex="1">
          <mxGeometry x="-8245.230000000001" y="900" width="209" height="80" as="geometry" />
        </mxCell>
        <mxCell id="D2uAuJA1LaHFy1BpvuMR-234" value="" style="endArrow=open;html=1;rounded=0;exitX=0.992;exitY=0.572;exitDx=0;exitDy=0;exitPerimeter=0;startArrow=none;startFill=0;startSize=6;dashed=1;endFill=0;endSize=12;entryX=0;entryY=0.5;entryDx=0;entryDy=0;fontSize=20;fontStyle=1;strokeWidth=2;" parent="1" source="D2uAuJA1LaHFy1BpvuMR-228" target="D2uAuJA1LaHFy1BpvuMR-233" edge="1">
          <mxGeometry width="50" height="50" relative="1" as="geometry">
            <mxPoint x="-8215.230000000001" y="930" as="sourcePoint" />
            <mxPoint x="-8165.230000000001" y="880" as="targetPoint" />
          </mxGeometry>
        </mxCell>
        <mxCell id="D2uAuJA1LaHFy1BpvuMR-235" value="&lt;font style=&quot;font-size: 20px;&quot;&gt;Check Leave Balance&lt;/font&gt;" style="ellipse;whiteSpace=wrap;html=1;fontSize=20;fontStyle=1;strokeWidth=2;" parent="1" vertex="1">
          <mxGeometry x="-8730.23" y="480" width="371" height="80" as="geometry" />
        </mxCell>
        <mxCell id="D2uAuJA1LaHFy1BpvuMR-236" value="" style="endArrow=none;html=1;rounded=0;entryX=0;entryY=0.5;entryDx=0;entryDy=0;fontSize=20;fontStyle=1;strokeWidth=2;" parent="1" target="D2uAuJA1LaHFy1BpvuMR-235" edge="1">
          <mxGeometry width="50" height="50" relative="1" as="geometry">
            <mxPoint x="-9480" y="720" as="sourcePoint" />
            <mxPoint x="-8730.880000000001" y="470" as="targetPoint" />
          </mxGeometry>
        </mxCell>
        <mxCell id="D2uAuJA1LaHFy1BpvuMR-237" value="&amp;lt;&amp;lt;include&amp;gt;&amp;gt;" style="text;html=1;align=center;verticalAlign=middle;resizable=0;points=[];autosize=1;strokeColor=none;fillColor=none;fontSize=20;fontStyle=1;strokeWidth=2;" parent="1" vertex="1">
          <mxGeometry x="-8364.520000000002" y="810" width="130" height="40" as="geometry" />
        </mxCell>
        <mxCell id="D2uAuJA1LaHFy1BpvuMR-238" value="&amp;lt;&amp;lt;include&amp;gt;&amp;gt;" style="text;html=1;align=center;verticalAlign=middle;resizable=0;points=[];autosize=1;strokeColor=none;fillColor=none;fontSize=20;fontStyle=1;strokeWidth=2;" parent="1" vertex="1">
          <mxGeometry x="-8390.980000000001" y="890" width="130" height="40" as="geometry" />
        </mxCell>
        <mxCell id="D2uAuJA1LaHFy1BpvuMR-239" value="&lt;span style=&quot;font-size: 20px;&quot;&gt;Promote Employee&lt;/span&gt;" style="ellipse;whiteSpace=wrap;html=1;fontSize=20;fontStyle=1;strokeWidth=2;" parent="1" vertex="1">
          <mxGeometry x="-7987.62" y="8720" width="333" height="60" as="geometry" />
        </mxCell>
        <mxCell id="D2uAuJA1LaHFy1BpvuMR-240" value="&lt;font style=&quot;font-size: 20px;&quot;&gt;View Employee KPI Report&lt;/font&gt;" style="ellipse;whiteSpace=wrap;html=1;fontSize=20;fontStyle=1;strokeWidth=2;" parent="1" vertex="1">
          <mxGeometry x="-7977.62" y="8560" width="331.75" height="60" as="geometry" />
        </mxCell>
        <mxCell id="D2uAuJA1LaHFy1BpvuMR-241" value="" style="endArrow=open;dashed=1;html=1;rounded=0;exitX=0.44;exitY=0.994;exitDx=0;exitDy=0;exitPerimeter=0;endFill=0;endSize=11;entryX=0.5;entryY=0;entryDx=0;entryDy=0;fontSize=20;fontStyle=1;strokeWidth=2;" parent="1" source="D2uAuJA1LaHFy1BpvuMR-21" target="D2uAuJA1LaHFy1BpvuMR-240" edge="1">
          <mxGeometry width="50" height="50" relative="1" as="geometry">
            <mxPoint x="-8337.27" y="8540" as="sourcePoint" />
            <mxPoint x="-8287.27" y="8490" as="targetPoint" />
          </mxGeometry>
        </mxCell>
        <mxCell id="D2uAuJA1LaHFy1BpvuMR-242" value="&amp;lt;&amp;lt;include&amp;gt;&amp;gt;" style="text;html=1;align=center;verticalAlign=middle;resizable=0;points=[];autosize=1;strokeColor=none;fillColor=none;fontSize=20;fontStyle=1;strokeWidth=2;" parent="1" vertex="1">
          <mxGeometry x="-7925.2" y="8655" width="130" height="40" as="geometry" />
        </mxCell>
        <mxCell id="D2uAuJA1LaHFy1BpvuMR-244" value="" style="endArrow=none;html=1;rounded=0;exitX=0;exitY=0.5;exitDx=0;exitDy=0;fontSize=20;fontStyle=1;strokeWidth=2;" parent="1" source="D2uAuJA1LaHFy1BpvuMR-243" edge="1">
          <mxGeometry width="50" height="50" relative="1" as="geometry">
            <mxPoint x="-9358.75" y="2590" as="sourcePoint" />
            <mxPoint x="-9316.5" y="2540" as="targetPoint" />
          </mxGeometry>
        </mxCell>
        <mxCell id="D2uAuJA1LaHFy1BpvuMR-245" value="" style="endArrow=none;dashed=1;html=1;rounded=0;entryX=0.01;entryY=0.594;entryDx=0;entryDy=0;entryPerimeter=0;startArrow=open;startFill=0;jumpSize=12;startSize=12;exitX=0.941;exitY=0.264;exitDx=0;exitDy=0;exitPerimeter=0;fontSize=20;fontStyle=1;strokeWidth=2;" parent="1" source="D2uAuJA1LaHFy1BpvuMR-9" target="D2uAuJA1LaHFy1BpvuMR-249" edge="1">
          <mxGeometry width="50" height="50" relative="1" as="geometry">
            <mxPoint x="-8367.58" y="690" as="sourcePoint" />
            <mxPoint x="-8107.58" y="400" as="targetPoint" />
          </mxGeometry>
        </mxCell>
        <mxCell id="D2uAuJA1LaHFy1BpvuMR-246" value="&lt;font style=&quot;font-size: 20px;&quot;&gt;Apply Sick Leave&lt;/font&gt;" style="ellipse;whiteSpace=wrap;html=1;fontSize=20;fontStyle=1;strokeWidth=2;" parent="1" vertex="1">
          <mxGeometry x="-7990" y="700" width="143.81" height="70" as="geometry" />
        </mxCell>
        <mxCell id="D2uAuJA1LaHFy1BpvuMR-247" value="" style="endArrow=open;dashed=1;html=1;rounded=0;endFill=0;startArrow=none;startFill=0;endSize=12;startSize=12;exitX=0;exitY=0.5;exitDx=0;exitDy=0;entryX=0.984;entryY=0.626;entryDx=0;entryDy=0;entryPerimeter=0;fontSize=20;fontStyle=1;strokeWidth=2;" parent="1" source="D2uAuJA1LaHFy1BpvuMR-246" target="D2uAuJA1LaHFy1BpvuMR-9" edge="1">
          <mxGeometry width="50" height="50" relative="1" as="geometry">
            <mxPoint x="-8047.58" y="720" as="sourcePoint" />
            <mxPoint x="-8367.58" y="720" as="targetPoint" />
          </mxGeometry>
        </mxCell>
        <mxCell id="D2uAuJA1LaHFy1BpvuMR-248" value="&amp;lt;&amp;lt;extend&amp;gt;&amp;gt;" style="text;html=1;align=center;verticalAlign=middle;resizable=0;points=[];autosize=1;strokeColor=none;fillColor=none;fontSize=20;fontStyle=1;strokeWidth=2;" parent="1" vertex="1">
          <mxGeometry x="-8180.48" y="690" width="130" height="40" as="geometry" />
        </mxCell>
        <mxCell id="D2uAuJA1LaHFy1BpvuMR-249" value="&lt;font style=&quot;font-size: 20px;&quot;&gt;Apply maternity leave&lt;/font&gt;" style="ellipse;whiteSpace=wrap;html=1;fontSize=20;fontStyle=1;strokeWidth=2;" parent="1" vertex="1">
          <mxGeometry x="-8007.120000000001" y="320" width="189" height="80" as="geometry" />
        </mxCell>
        <mxCell id="D2uAuJA1LaHFy1BpvuMR-250" value="&amp;lt;&amp;lt;extend&amp;gt;&amp;gt;" style="text;html=1;align=center;verticalAlign=middle;resizable=0;points=[];autosize=1;strokeColor=none;fillColor=none;fontSize=20;fontStyle=1;strokeWidth=2;" parent="1" vertex="1">
          <mxGeometry x="-8287.3" y="490" width="130" height="40" as="geometry" />
        </mxCell>
        <mxCell id="D2uAuJA1LaHFy1BpvuMR-251" value="" style="endArrow=open;dashed=1;html=1;rounded=0;entryX=0.5;entryY=1;entryDx=0;entryDy=0;endFill=0;endSize=12;exitX=0.383;exitY=0.014;exitDx=0;exitDy=0;exitPerimeter=0;fontSize=20;fontStyle=1;strokeWidth=2;" parent="1" source="D2uAuJA1LaHFy1BpvuMR-239" target="D2uAuJA1LaHFy1BpvuMR-240" edge="1">
          <mxGeometry width="50" height="50" relative="1" as="geometry">
            <mxPoint x="-8397.27" y="8640" as="sourcePoint" />
            <mxPoint x="-8347.27" y="8590" as="targetPoint" />
          </mxGeometry>
        </mxCell>
        <mxCell id="D2uAuJA1LaHFy1BpvuMR-252" value="&amp;lt;&amp;lt;include&amp;gt;&amp;gt;" style="text;html=1;align=center;verticalAlign=middle;resizable=0;points=[];autosize=1;strokeColor=none;fillColor=none;fontSize=20;fontStyle=1;strokeWidth=2;" parent="1" vertex="1">
          <mxGeometry x="-7922.03" y="8505" width="130" height="40" as="geometry" />
        </mxCell>
        <mxCell id="D2uAuJA1LaHFy1BpvuMR-253" value="" style="endArrow=none;html=1;rounded=0;entryX=1;entryY=0.5;entryDx=0;entryDy=0;fontSize=20;fontStyle=1;strokeWidth=2;" parent="1" target="D2uAuJA1LaHFy1BpvuMR-1" edge="1">
          <mxGeometry width="50" height="50" relative="1" as="geometry">
            <mxPoint x="-6903.08" y="3510" as="sourcePoint" />
            <mxPoint x="-9305.33" y="3360" as="targetPoint" />
          </mxGeometry>
        </mxCell>
        <mxCell id="D2uAuJA1LaHFy1BpvuMR-254" value="" style="endArrow=none;html=1;rounded=0;entryX=1;entryY=0.5;entryDx=0;entryDy=0;fontSize=20;fontStyle=1;strokeWidth=2;" parent="1" target="D2uAuJA1LaHFy1BpvuMR-2" edge="1">
          <mxGeometry width="50" height="50" relative="1" as="geometry">
            <mxPoint x="-6903.08" y="3510" as="sourcePoint" />
            <mxPoint x="-8695.33" y="3200" as="targetPoint" />
          </mxGeometry>
        </mxCell>
        <mxCell id="D2uAuJA1LaHFy1BpvuMR-258" value="" style="endArrow=none;html=1;rounded=0;exitX=1;exitY=0.5;exitDx=0;exitDy=0;fontSize=20;fontStyle=1;strokeWidth=2;" parent="1" source="D2uAuJA1LaHFy1BpvuMR-145" edge="1">
          <mxGeometry width="50" height="50" relative="1" as="geometry">
            <mxPoint x="-9405.33" y="3460" as="sourcePoint" />
            <mxPoint x="-6903.08" y="3510" as="targetPoint" />
          </mxGeometry>
        </mxCell>
        <mxCell id="D2uAuJA1LaHFy1BpvuMR-259" value="" style="endArrow=none;html=1;rounded=0;entryX=0;entryY=0.5;entryDx=0;entryDy=0;fontSize=20;fontStyle=1;strokeWidth=2;" parent="1" target="D2uAuJA1LaHFy1BpvuMR-91" edge="1">
          <mxGeometry width="50" height="50" relative="1" as="geometry">
            <mxPoint x="-9532.25" y="5320" as="sourcePoint" />
            <mxPoint x="-9482.25" y="5250" as="targetPoint" />
          </mxGeometry>
        </mxCell>
        <mxCell id="D2uAuJA1LaHFy1BpvuMR-260" value="" style="endArrow=none;html=1;rounded=0;entryX=0;entryY=0.5;entryDx=0;entryDy=0;fontSize=20;fontStyle=1;strokeWidth=2;" parent="1" target="D2uAuJA1LaHFy1BpvuMR-26" edge="1">
          <mxGeometry width="50" height="50" relative="1" as="geometry">
            <mxPoint x="-9530" y="5320" as="sourcePoint" />
            <mxPoint x="-9482.25" y="5270" as="targetPoint" />
          </mxGeometry>
        </mxCell>
        <mxCell id="D2uAuJA1LaHFy1BpvuMR-261" value="" style="endArrow=none;html=1;rounded=0;entryX=0;entryY=0.5;entryDx=0;entryDy=0;fontSize=20;fontStyle=1;strokeWidth=2;" parent="1" target="D2uAuJA1LaHFy1BpvuMR-14" edge="1">
          <mxGeometry width="50" height="50" relative="1" as="geometry">
            <mxPoint x="-9532.25" y="5320" as="sourcePoint" />
            <mxPoint x="-9482.25" y="5270" as="targetPoint" />
          </mxGeometry>
        </mxCell>
        <mxCell id="D2uAuJA1LaHFy1BpvuMR-262" value="" style="endArrow=none;html=1;rounded=0;fontSize=20;fontStyle=1;strokeWidth=2;exitX=0;exitY=0.5;exitDx=0;exitDy=0;" parent="1" source="D2uAuJA1LaHFy1BpvuMR-15" edge="1">
          <mxGeometry width="50" height="50" relative="1" as="geometry">
            <mxPoint x="-6720" y="5090" as="sourcePoint" />
            <mxPoint x="-9530" y="5320" as="targetPoint" />
          </mxGeometry>
        </mxCell>
        <mxCell id="D2uAuJA1LaHFy1BpvuMR-263" value="" style="endArrow=none;html=1;rounded=0;fontSize=20;fontStyle=1;strokeWidth=2;exitX=0;exitY=0.5;exitDx=0;exitDy=0;" parent="1" source="D2uAuJA1LaHFy1BpvuMR-106" edge="1">
          <mxGeometry width="50" height="50" relative="1" as="geometry">
            <mxPoint x="-6720" y="5090" as="sourcePoint" />
            <mxPoint x="-9530" y="5320" as="targetPoint" />
          </mxGeometry>
        </mxCell>
        <mxCell id="D2uAuJA1LaHFy1BpvuMR-264" value="" style="endArrow=none;html=1;rounded=0;entryX=0;entryY=0.5;entryDx=0;entryDy=0;fontSize=20;fontStyle=1;strokeWidth=2;" parent="1" target="D2uAuJA1LaHFy1BpvuMR-16" edge="1">
          <mxGeometry width="50" height="50" relative="1" as="geometry">
            <mxPoint x="-9532.25" y="5320" as="sourcePoint" />
            <mxPoint x="-9482.25" y="5270" as="targetPoint" />
          </mxGeometry>
        </mxCell>
        <mxCell id="D2uAuJA1LaHFy1BpvuMR-265" value="" style="endArrow=none;html=1;rounded=0;entryX=0;entryY=0.5;entryDx=0;entryDy=0;fontSize=20;fontStyle=1;strokeWidth=2;" parent="1" target="D2uAuJA1LaHFy1BpvuMR-17" edge="1">
          <mxGeometry width="50" height="50" relative="1" as="geometry">
            <mxPoint x="-9532.25" y="5320" as="sourcePoint" />
            <mxPoint x="-9482.25" y="5270" as="targetPoint" />
          </mxGeometry>
        </mxCell>
        <mxCell id="D2uAuJA1LaHFy1BpvuMR-266" value="" style="endArrow=none;html=1;rounded=0;entryX=0;entryY=0.5;entryDx=0;entryDy=0;fontSize=20;fontStyle=1;strokeWidth=2;" parent="1" target="D2uAuJA1LaHFy1BpvuMR-30" edge="1">
          <mxGeometry width="50" height="50" relative="1" as="geometry">
            <mxPoint x="-9532.25" y="5320" as="sourcePoint" />
            <mxPoint x="-8752.25" y="5810" as="targetPoint" />
          </mxGeometry>
        </mxCell>
        <mxCell id="D2uAuJA1LaHFy1BpvuMR-267" value="" style="endArrow=none;html=1;rounded=0;exitX=0;exitY=0.5;exitDx=0;exitDy=0;fontSize=20;fontStyle=1;strokeWidth=2;" parent="1" source="D2uAuJA1LaHFy1BpvuMR-29" edge="1">
          <mxGeometry width="50" height="50" relative="1" as="geometry">
            <mxPoint x="-9772.25" y="5870" as="sourcePoint" />
            <mxPoint x="-9532.25" y="5320" as="targetPoint" />
          </mxGeometry>
        </mxCell>
        <mxCell id="D2uAuJA1LaHFy1BpvuMR-268" value="" style="endArrow=none;html=1;rounded=0;exitX=0;exitY=0.5;exitDx=0;exitDy=0;fontSize=20;fontStyle=1;strokeWidth=2;" parent="1" source="D2uAuJA1LaHFy1BpvuMR-64" edge="1">
          <mxGeometry width="50" height="50" relative="1" as="geometry">
            <mxPoint x="-9582.25" y="5370" as="sourcePoint" />
            <mxPoint x="-9532.25" y="5320" as="targetPoint" />
          </mxGeometry>
        </mxCell>
        <mxCell id="D2uAuJA1LaHFy1BpvuMR-269" value="" style="endArrow=none;html=1;rounded=0;exitX=0;exitY=0.5;exitDx=0;exitDy=0;fontSize=20;fontStyle=1;strokeWidth=2;" parent="1" source="D2uAuJA1LaHFy1BpvuMR-28" edge="1">
          <mxGeometry width="50" height="50" relative="1" as="geometry">
            <mxPoint x="-9572.25" y="5370" as="sourcePoint" />
            <mxPoint x="-9532.25" y="5320" as="targetPoint" />
          </mxGeometry>
        </mxCell>
        <mxCell id="D2uAuJA1LaHFy1BpvuMR-270" value="" style="endArrow=none;html=1;rounded=0;exitX=0;exitY=0.5;exitDx=0;exitDy=0;fontSize=20;fontStyle=1;strokeWidth=2;" parent="1" source="D2uAuJA1LaHFy1BpvuMR-34" edge="1">
          <mxGeometry width="50" height="50" relative="1" as="geometry">
            <mxPoint x="-9572.25" y="5370" as="sourcePoint" />
            <mxPoint x="-9532.25" y="5320" as="targetPoint" />
          </mxGeometry>
        </mxCell>
        <mxCell id="D2uAuJA1LaHFy1BpvuMR-271" value="" style="endArrow=none;html=1;rounded=0;exitX=0;exitY=0.5;exitDx=0;exitDy=0;fontSize=20;fontStyle=1;strokeWidth=2;" parent="1" source="D2uAuJA1LaHFy1BpvuMR-35" edge="1">
          <mxGeometry width="50" height="50" relative="1" as="geometry">
            <mxPoint x="-9582.25" y="5380" as="sourcePoint" />
            <mxPoint x="-9532.25" y="5320" as="targetPoint" />
          </mxGeometry>
        </mxCell>
        <mxCell id="D2uAuJA1LaHFy1BpvuMR-272" value="" style="endArrow=none;html=1;rounded=0;exitX=0;exitY=0.5;exitDx=0;exitDy=0;fontSize=20;fontStyle=1;strokeWidth=2;" parent="1" source="D2uAuJA1LaHFy1BpvuMR-41" edge="1">
          <mxGeometry width="50" height="50" relative="1" as="geometry">
            <mxPoint x="-9552.25" y="5380" as="sourcePoint" />
            <mxPoint x="-9532.25" y="5320" as="targetPoint" />
          </mxGeometry>
        </mxCell>
        <mxCell id="D2uAuJA1LaHFy1BpvuMR-273" value="" style="endArrow=none;html=1;rounded=0;exitX=0;exitY=0.5;exitDx=0;exitDy=0;fontSize=20;fontStyle=1;strokeWidth=2;" parent="1" source="D2uAuJA1LaHFy1BpvuMR-42" edge="1">
          <mxGeometry width="50" height="50" relative="1" as="geometry">
            <mxPoint x="-9152.25" y="6510.695906929348" as="sourcePoint" />
            <mxPoint x="-9532.25" y="5320" as="targetPoint" />
          </mxGeometry>
        </mxCell>
        <mxCell id="D2uAuJA1LaHFy1BpvuMR-274" value="" style="endArrow=none;html=1;rounded=0;exitX=0;exitY=0.5;exitDx=0;exitDy=0;fontSize=20;fontStyle=1;strokeWidth=2;" parent="1" source="D2uAuJA1LaHFy1BpvuMR-43" edge="1">
          <mxGeometry width="50" height="50" relative="1" as="geometry">
            <mxPoint x="-9602.25" y="5960" as="sourcePoint" />
            <mxPoint x="-9532.25" y="5320" as="targetPoint" />
          </mxGeometry>
        </mxCell>
        <mxCell id="D2uAuJA1LaHFy1BpvuMR-275" value="" style="endArrow=none;html=1;rounded=0;exitX=0;exitY=0.5;exitDx=0;exitDy=0;fontSize=20;fontStyle=1;strokeWidth=2;" parent="1" source="D2uAuJA1LaHFy1BpvuMR-44" edge="1">
          <mxGeometry width="50" height="50" relative="1" as="geometry">
            <mxPoint x="-9282.25" y="7021.454634232955" as="sourcePoint" />
            <mxPoint x="-9532.25" y="5320" as="targetPoint" />
          </mxGeometry>
        </mxCell>
        <mxCell id="D2uAuJA1LaHFy1BpvuMR-276" value="" style="endArrow=none;html=1;rounded=0;exitX=0;exitY=0.5;exitDx=0;exitDy=0;fontSize=20;fontStyle=1;strokeWidth=2;" parent="1" source="D2uAuJA1LaHFy1BpvuMR-45" edge="1">
          <mxGeometry width="50" height="50" relative="1" as="geometry">
            <mxPoint x="-9572.25" y="5380" as="sourcePoint" />
            <mxPoint x="-9532.25" y="5320" as="targetPoint" />
          </mxGeometry>
        </mxCell>
        <mxCell id="D2uAuJA1LaHFy1BpvuMR-277" value="" style="endArrow=none;html=1;rounded=0;exitX=0;exitY=0.5;exitDx=0;exitDy=0;fontSize=20;fontStyle=1;strokeWidth=2;" parent="1" source="D2uAuJA1LaHFy1BpvuMR-46" edge="1">
          <mxGeometry width="50" height="50" relative="1" as="geometry">
            <mxPoint x="-9562.25" y="5380" as="sourcePoint" />
            <mxPoint x="-9532.25" y="5320" as="targetPoint" />
          </mxGeometry>
        </mxCell>
        <mxCell id="D2uAuJA1LaHFy1BpvuMR-278" value="" style="endArrow=none;html=1;rounded=0;exitX=0;exitY=0.5;exitDx=0;exitDy=0;fontSize=20;fontStyle=1;strokeWidth=2;" parent="1" source="D2uAuJA1LaHFy1BpvuMR-142" edge="1">
          <mxGeometry width="50" height="50" relative="1" as="geometry">
            <mxPoint x="-9582.25" y="5400" as="sourcePoint" />
            <mxPoint x="-9532.25" y="5320" as="targetPoint" />
          </mxGeometry>
        </mxCell>
        <mxCell id="D2uAuJA1LaHFy1BpvuMR-279" value="" style="endArrow=none;html=1;rounded=0;entryX=0;entryY=0.5;entryDx=0;entryDy=0;fontSize=20;fontStyle=1;strokeWidth=2;" parent="1" target="D2uAuJA1LaHFy1BpvuMR-20" edge="1">
          <mxGeometry width="50" height="50" relative="1" as="geometry">
            <mxPoint x="-9600" y="8600" as="sourcePoint" />
            <mxPoint x="-9490.24" y="8550" as="targetPoint" />
          </mxGeometry>
        </mxCell>
        <mxCell id="D2uAuJA1LaHFy1BpvuMR-280" value="" style="endArrow=none;html=1;rounded=0;entryX=0;entryY=0.5;entryDx=0;entryDy=0;fontSize=20;fontStyle=1;strokeWidth=2;" parent="1" target="D2uAuJA1LaHFy1BpvuMR-239" edge="1">
          <mxGeometry width="50" height="50" relative="1" as="geometry">
            <mxPoint x="-9600" y="8600" as="sourcePoint" />
            <mxPoint x="-9490.24" y="8550" as="targetPoint" />
          </mxGeometry>
        </mxCell>
        <mxCell id="D2uAuJA1LaHFy1BpvuMR-281" value="" style="endArrow=none;html=1;rounded=0;entryX=0;entryY=0.5;entryDx=0;entryDy=0;fontSize=20;fontStyle=1;strokeWidth=2;" parent="1" target="D2uAuJA1LaHFy1BpvuMR-21" edge="1">
          <mxGeometry width="50" height="50" relative="1" as="geometry">
            <mxPoint x="-9600" y="8600" as="sourcePoint" />
            <mxPoint x="-9490.24" y="8550" as="targetPoint" />
          </mxGeometry>
        </mxCell>
        <mxCell id="D2uAuJA1LaHFy1BpvuMR-303" style="edgeStyle=orthogonalEdgeStyle;rounded=0;orthogonalLoop=1;jettySize=auto;html=1;exitX=0.5;exitY=1;exitDx=0;exitDy=0;fontSize=20;fontStyle=1;strokeWidth=2;" parent="1" source="D2uAuJA1LaHFy1BpvuMR-95" target="D2uAuJA1LaHFy1BpvuMR-95" edge="1">
          <mxGeometry relative="1" as="geometry" />
        </mxCell>
        <mxCell id="D2uAuJA1LaHFy1BpvuMR-304" value="&lt;font style=&quot;font-size: 20px;&quot;&gt;Rate Performance&lt;/font&gt;" style="ellipse;whiteSpace=wrap;html=1;fontSize=20;fontStyle=1;strokeWidth=2;" parent="1" vertex="1">
          <mxGeometry x="-8722.33" y="5220" width="365" height="80" as="geometry" />
        </mxCell>
        <mxCell id="D2uAuJA1LaHFy1BpvuMR-305" value="" style="endArrow=none;html=1;rounded=0;entryX=0;entryY=0.5;entryDx=0;entryDy=0;fontSize=20;fontStyle=1;strokeWidth=2;" parent="1" target="D2uAuJA1LaHFy1BpvuMR-304" edge="1">
          <mxGeometry width="50" height="50" relative="1" as="geometry">
            <mxPoint x="-9530" y="5320" as="sourcePoint" />
            <mxPoint x="-9480" y="5270" as="targetPoint" />
          </mxGeometry>
        </mxCell>
        <mxCell id="D2uAuJA1LaHFy1BpvuMR-308" style="edgeStyle=orthogonalEdgeStyle;rounded=0;orthogonalLoop=1;jettySize=auto;html=1;exitX=0.5;exitY=1;exitDx=0;exitDy=0;fontSize=20;fontStyle=1;strokeWidth=2;" parent="1" edge="1">
          <mxGeometry relative="1" as="geometry">
            <mxPoint x="-8092.619999999999" y="8890" as="sourcePoint" />
            <mxPoint x="-8092.619999999999" y="8890" as="targetPoint" />
          </mxGeometry>
        </mxCell>
        <mxCell id="D2uAuJA1LaHFy1BpvuMR-309" style="edgeStyle=orthogonalEdgeStyle;rounded=0;orthogonalLoop=1;jettySize=auto;html=1;exitX=0.5;exitY=1;exitDx=0;exitDy=0;fontSize=20;fontStyle=1;strokeWidth=2;" parent="1" edge="1">
          <mxGeometry relative="1" as="geometry">
            <mxPoint x="-8112.1" y="6795" as="sourcePoint" />
            <mxPoint x="-8112.1" y="6795" as="targetPoint" />
          </mxGeometry>
        </mxCell>
        <mxCell id="D2uAuJA1LaHFy1BpvuMR-310" value="Generate Monthly Attendance Report" style="ellipse;whiteSpace=wrap;html=1;fontSize=20;fontStyle=1;strokeWidth=2;" parent="1" vertex="1">
          <mxGeometry x="-8011.750000000001" y="6170" width="417.59" height="75" as="geometry" />
        </mxCell>
        <mxCell id="D2uAuJA1LaHFy1BpvuMR-311" value="" style="endArrow=open;dashed=1;html=1;rounded=0;exitX=0;exitY=0.5;exitDx=0;exitDy=0;entryX=1;entryY=0.5;entryDx=0;entryDy=0;endFill=0;endSize=12;fontSize=20;fontStyle=1;strokeWidth=2;" parent="1" source="D2uAuJA1LaHFy1BpvuMR-310" target="D2uAuJA1LaHFy1BpvuMR-28" edge="1">
          <mxGeometry width="50" height="50" relative="1" as="geometry">
            <mxPoint x="-8160.620000000001" y="6318" as="sourcePoint" />
            <mxPoint x="-8335.62" y="6236" as="targetPoint" />
          </mxGeometry>
        </mxCell>
        <mxCell id="D2uAuJA1LaHFy1BpvuMR-312" value="&lt;font style=&quot;font-size: 20px;&quot;&gt;&amp;lt;&amp;lt;extend&amp;gt;&amp;gt;&lt;/font&gt;" style="text;html=1;align=center;verticalAlign=middle;resizable=0;points=[];autosize=1;strokeColor=none;fillColor=none;fontSize=20;fontStyle=1;strokeWidth=2;" parent="1" vertex="1">
          <mxGeometry x="-8320.320000000002" y="6180" width="130" height="40" as="geometry" />
        </mxCell>
        <mxCell id="D2uAuJA1LaHFy1BpvuMR-313" value="&lt;span style=&quot;font-size: 20px;&quot;&gt;View Leave Report&amp;nbsp;&lt;/span&gt;" style="ellipse;whiteSpace=wrap;html=1;fontSize=20;fontStyle=1;strokeWidth=2;" parent="1" vertex="1">
          <mxGeometry x="-8740.26" y="4040" width="239.66" height="70" as="geometry" />
        </mxCell>
        <mxCell id="D2uAuJA1LaHFy1BpvuMR-314" value="&lt;span style=&quot;font-size: 20px;&quot;&gt;View Attendance Report&lt;/span&gt;" style="ellipse;whiteSpace=wrap;html=1;fontSize=20;fontStyle=1;strokeWidth=2;" parent="1" vertex="1">
          <mxGeometry x="-8411.130000000001" y="4040" width="258.17" height="70" as="geometry" />
        </mxCell>
        <mxCell id="D2uAuJA1LaHFy1BpvuMR-315" value="" style="endArrow=none;dashed=1;html=1;rounded=0;exitX=0.5;exitY=0;exitDx=0;exitDy=0;startArrow=open;startFill=0;startSize=12;entryX=0.207;entryY=0.918;entryDx=0;entryDy=0;entryPerimeter=0;fontSize=20;fontStyle=1;strokeWidth=2;" parent="1" source="D2uAuJA1LaHFy1BpvuMR-313" target="D2uAuJA1LaHFy1BpvuMR-145" edge="1">
          <mxGeometry width="50" height="50" relative="1" as="geometry">
            <mxPoint x="-8427.1" y="4002" as="sourcePoint" />
            <mxPoint x="-8548.1" y="3920" as="targetPoint" />
          </mxGeometry>
        </mxCell>
        <mxCell id="D2uAuJA1LaHFy1BpvuMR-316" value="&lt;font style=&quot;font-size: 20px;&quot;&gt;&amp;lt;&amp;lt;include&amp;gt;&amp;gt;&lt;/font&gt;" style="text;html=1;align=center;verticalAlign=middle;resizable=0;points=[];autosize=1;strokeColor=none;fillColor=none;fontSize=20;fontStyle=1;strokeWidth=2;" parent="1" vertex="1">
          <mxGeometry x="-8660.63" y="3940" width="130" height="40" as="geometry" />
        </mxCell>
        <mxCell id="D2uAuJA1LaHFy1BpvuMR-317" value="" style="endArrow=none;dashed=1;html=1;rounded=0;exitX=0.5;exitY=0;exitDx=0;exitDy=0;startArrow=open;startFill=0;startSize=12;entryX=0.648;entryY=0.961;entryDx=0;entryDy=0;entryPerimeter=0;fontSize=20;fontStyle=1;strokeWidth=2;" parent="1" source="D2uAuJA1LaHFy1BpvuMR-314" target="D2uAuJA1LaHFy1BpvuMR-145" edge="1">
          <mxGeometry width="50" height="50" relative="1" as="geometry">
            <mxPoint x="-8610.26" y="4050" as="sourcePoint" />
            <mxPoint x="-8526.26" y="3934" as="targetPoint" />
          </mxGeometry>
        </mxCell>
        <mxCell id="D2uAuJA1LaHFy1BpvuMR-318" value="&lt;font style=&quot;font-size: 20px;&quot;&gt;&amp;lt;&amp;lt;include&amp;gt;&amp;gt;&lt;/font&gt;" style="text;html=1;align=center;verticalAlign=middle;resizable=0;points=[];autosize=1;strokeColor=none;fillColor=none;fontSize=20;fontStyle=1;strokeWidth=2;" parent="1" vertex="1">
          <mxGeometry x="-8372.939999999999" y="3940" width="130" height="40" as="geometry" />
        </mxCell>
        <mxCell id="D2uAuJA1LaHFy1BpvuMR-319" value="View Personal Details" style="ellipse;whiteSpace=wrap;html=1;fontSize=20;fontStyle=1;strokeWidth=2;" parent="1" vertex="1">
          <mxGeometry x="-8812.879999999997" y="1485" width="265" height="70" as="geometry" />
        </mxCell>
        <mxCell id="D2uAuJA1LaHFy1BpvuMR-320" value="View Salary/OT/Increment&lt;div&gt;/Bonus/NoPay&lt;/div&gt;" style="ellipse;whiteSpace=wrap;html=1;fontSize=20;fontStyle=1;strokeWidth=2;" parent="1" vertex="1">
          <mxGeometry x="-8481.029999999999" y="1465" width="324.31" height="70" as="geometry" />
        </mxCell>
        <mxCell id="D2uAuJA1LaHFy1BpvuMR-321" value="View Task/Meeting&lt;div&gt;/EPF&amp;amp;ETF/Promotion&lt;/div&gt;" style="ellipse;whiteSpace=wrap;html=1;fontSize=20;fontStyle=1;strokeWidth=2;" parent="1" vertex="1">
          <mxGeometry x="-8638.31" y="1585" width="311.59" height="70" as="geometry" />
        </mxCell>
        <mxCell id="D2uAuJA1LaHFy1BpvuMR-322" value="" style="endArrow=none;dashed=1;html=1;dashPattern=1 3;strokeWidth=2;rounded=0;entryX=0.5;entryY=0;entryDx=0;entryDy=0;exitX=0.183;exitY=0.859;exitDx=0;exitDy=0;exitPerimeter=0;fontSize=20;startArrow=open;startFill=0;startSize=12;fontStyle=1" parent="1" source="D2uAuJA1LaHFy1BpvuMR-92" target="D2uAuJA1LaHFy1BpvuMR-319" edge="1">
          <mxGeometry width="50" height="50" relative="1" as="geometry">
            <mxPoint x="-8353.72" y="1165" as="sourcePoint" />
            <mxPoint x="-8031.72" y="1605" as="targetPoint" />
          </mxGeometry>
        </mxCell>
        <mxCell id="D2uAuJA1LaHFy1BpvuMR-323" value="&lt;font style=&quot;font-size: 20px;&quot;&gt;&amp;lt;&amp;lt;extend&amp;gt;&amp;gt;&lt;/font&gt;" style="text;html=1;align=center;verticalAlign=middle;resizable=0;points=[];autosize=1;strokeColor=none;fillColor=none;fontSize=20;fontStyle=1;strokeWidth=2;" parent="1" vertex="1">
          <mxGeometry x="-8745.379999999997" y="1445" width="130" height="40" as="geometry" />
        </mxCell>
        <mxCell id="D2uAuJA1LaHFy1BpvuMR-324" value="" style="endArrow=none;dashed=1;html=1;dashPattern=1 3;strokeWidth=2;rounded=0;entryX=0.5;entryY=0;entryDx=0;entryDy=0;exitX=1;exitY=0.5;exitDx=0;exitDy=0;fontSize=20;startArrow=open;startFill=0;startSize=12;fontStyle=1" parent="1" source="D2uAuJA1LaHFy1BpvuMR-92" target="D2uAuJA1LaHFy1BpvuMR-320" edge="1">
          <mxGeometry width="50" height="50" relative="1" as="geometry">
            <mxPoint x="-8353.72" y="1165" as="sourcePoint" />
            <mxPoint x="-8031.72" y="1605" as="targetPoint" />
          </mxGeometry>
        </mxCell>
        <mxCell id="D2uAuJA1LaHFy1BpvuMR-325" value="&lt;font style=&quot;font-size: 20px;&quot;&gt;&amp;lt;&amp;lt;extend&amp;gt;&amp;gt;&lt;/font&gt;" style="text;html=1;align=center;verticalAlign=middle;resizable=0;points=[];autosize=1;strokeColor=none;fillColor=none;fontSize=20;fontStyle=1;strokeWidth=2;" parent="1" vertex="1">
          <mxGeometry x="-8379.209999999997" y="1415" width="130" height="40" as="geometry" />
        </mxCell>
        <mxCell id="D2uAuJA1LaHFy1BpvuMR-326" value="" style="endArrow=none;dashed=1;html=1;dashPattern=1 3;strokeWidth=2;rounded=0;exitX=0.5;exitY=1;exitDx=0;exitDy=0;fontSize=20;startArrow=open;startFill=0;startSize=12;fontStyle=1" parent="1" source="D2uAuJA1LaHFy1BpvuMR-92" target="D2uAuJA1LaHFy1BpvuMR-321" edge="1">
          <mxGeometry width="50" height="50" relative="1" as="geometry">
            <mxPoint x="-8353.72" y="1165" as="sourcePoint" />
            <mxPoint x="-8031.72" y="1605" as="targetPoint" />
          </mxGeometry>
        </mxCell>
        <mxCell id="D2uAuJA1LaHFy1BpvuMR-327" value="&lt;font style=&quot;font-size: 20px;&quot;&gt;&amp;lt;&amp;lt;extend&amp;gt;&amp;gt;&lt;/font&gt;" style="text;html=1;align=center;verticalAlign=middle;resizable=0;points=[];autosize=1;strokeColor=none;fillColor=none;fontSize=20;fontStyle=1;strokeWidth=2;" parent="1" vertex="1">
          <mxGeometry x="-8564.309999999998" y="1535" width="130" height="40" as="geometry" />
        </mxCell>
        <mxCell id="ttdvyG4UByGEfmeALYzm-1" value="" style="endArrow=none;html=1;rounded=0;strokeWidth=2;" parent="1" edge="1">
          <mxGeometry width="50" height="50" relative="1" as="geometry">
            <mxPoint x="-9580" y="5220" as="sourcePoint" />
            <mxPoint x="-9580" y="830" as="targetPoint" />
          </mxGeometry>
        </mxCell>
        <mxCell id="7kRDTScoJdhUVzWF_K4i-1" value="" style="endArrow=none;html=1;rounded=0;strokeWidth=2;" parent="1" edge="1">
          <mxGeometry width="50" height="50" relative="1" as="geometry">
            <mxPoint x="-9650" y="8530" as="sourcePoint" />
            <mxPoint x="-9660" y="830" as="targetPoint" />
          </mxGeometry>
        </mxCell>
        <mxCell id="7kRDTScoJdhUVzWF_K4i-3" value="" style="endArrow=none;html=1;rounded=0;strokeWidth=2;" parent="1" edge="1">
          <mxGeometry width="50" height="50" relative="1" as="geometry">
            <mxPoint x="-9470" y="830" as="sourcePoint" />
            <mxPoint x="-9380" y="2540" as="targetPoint" />
            <Array as="points">
              <mxPoint x="-9470" y="2540" />
            </Array>
          </mxGeometry>
        </mxCell>
        <mxCell id="7kRDTScoJdhUVzWF_K4i-4" value="" style="endArrow=none;html=1;rounded=0;strokeWidth=2;" parent="1" edge="1">
          <mxGeometry width="50" height="50" relative="1" as="geometry">
            <mxPoint x="-9660" y="830" as="sourcePoint" />
            <mxPoint x="-9470" y="830" as="targetPoint" />
          </mxGeometry>
        </mxCell>
        <mxCell id="7kRDTScoJdhUVzWF_K4i-5" value="" style="endArrow=block;html=1;rounded=0;endFill=0;strokeWidth=2;endSize=12;" parent="1" edge="1">
          <mxGeometry width="50" height="50" relative="1" as="geometry">
            <mxPoint x="-9550.150000000001" y="830" as="sourcePoint" />
            <mxPoint x="-9550" y="780" as="targetPoint" />
          </mxGeometry>
        </mxCell>
        <mxCell id="7kRDTScoJdhUVzWF_K4i-6" value="Apply EPF/ETF" style="ellipse;whiteSpace=wrap;html=1;fontSize=20;fontStyle=1;strokeWidth=2;" parent="1" vertex="1">
          <mxGeometry x="-8690.48" y="1890" width="375" height="70" as="geometry" />
        </mxCell>
        <mxCell id="7kRDTScoJdhUVzWF_K4i-7" value="" style="endArrow=none;html=1;rounded=0;strokeWidth=2;entryX=0;entryY=0.5;entryDx=0;entryDy=0;" parent="1" target="7kRDTScoJdhUVzWF_K4i-6" edge="1">
          <mxGeometry width="50" height="50" relative="1" as="geometry">
            <mxPoint x="-9480" y="720" as="sourcePoint" />
            <mxPoint x="-8730" y="1810" as="targetPoint" />
          </mxGeometry>
        </mxCell>
        <mxCell id="7kRDTScoJdhUVzWF_K4i-330" value="&lt;font style=&quot;font-size: 20px;&quot;&gt;&amp;lt;&amp;lt;extend&amp;gt;&amp;gt;&lt;/font&gt;" style="text;html=1;align=center;verticalAlign=middle;resizable=0;points=[];autosize=1;strokeColor=none;fillColor=none;fontSize=20;fontStyle=1;strokeWidth=2;" parent="1" vertex="1">
          <mxGeometry x="-8259.210000000003" y="4590" width="130" height="40" as="geometry" />
        </mxCell>
        <mxCell id="Ey5eNqg2WOmvV5936PIH-1" value="" style="endArrow=none;html=1;rounded=0;entryX=0;entryY=0.5;entryDx=0;entryDy=0;" parent="1" target="D2uAuJA1LaHFy1BpvuMR-25" edge="1">
          <mxGeometry width="50" height="50" relative="1" as="geometry">
            <mxPoint x="-9316.5" y="2540" as="sourcePoint" />
            <mxPoint x="-8186.5" y="2260" as="targetPoint" />
          </mxGeometry>
        </mxCell>
        <mxCell id="_CZqN2XjWdIGPm7hQDea-2" value="" style="endArrow=none;html=1;rounded=0;entryX=1;entryY=0.5;entryDx=0;entryDy=0;fontSize=20;fontStyle=1;strokeWidth=2;" parent="1" target="D2uAuJA1LaHFy1BpvuMR-5" edge="1">
          <mxGeometry width="50" height="50" relative="1" as="geometry">
            <mxPoint x="-6903.92" y="3510" as="sourcePoint" />
            <mxPoint x="-8265.92" y="3095" as="targetPoint" />
          </mxGeometry>
        </mxCell>
        <mxCell id="_CZqN2XjWdIGPm7hQDea-3" value="" style="endArrow=none;html=1;rounded=0;entryX=1;entryY=0.5;entryDx=0;entryDy=0;fontSize=20;fontStyle=1;strokeWidth=2;" parent="1" target="D2uAuJA1LaHFy1BpvuMR-4" edge="1">
          <mxGeometry width="50" height="50" relative="1" as="geometry">
            <mxPoint x="-6903.92" y="3510" as="sourcePoint" />
            <mxPoint x="-8255.92" y="3105" as="targetPoint" />
          </mxGeometry>
        </mxCell>
        <mxCell id="D2uAuJA1LaHFy1BpvuMR-19" value="Managing Director" style="shape=umlActor;verticalLabelPosition=bottom;verticalAlign=top;html=1;fontSize=20;fontStyle=1;strokeWidth=2;" parent="1" vertex="1">
          <mxGeometry x="-9670" y="8540" width="40" height="80" as="geometry" />
        </mxCell>
        <mxCell id="EfS-6Uey1ptOtGm0Xwp3-2" value="" style="swimlane;startSize=0;" parent="1" vertex="1">
          <mxGeometry x="-9250" y="90" width="2120" height="8870" as="geometry" />
        </mxCell>
        <mxCell id="D2uAuJA1LaHFy1BpvuMR-27" value="&lt;font style=&quot;font-size: 31px;&quot;&gt;Proposed Use case for Employee Management System&lt;/font&gt;" style="text;html=1;align=center;verticalAlign=middle;resizable=0;points=[];autosize=1;strokeColor=none;fillColor=none;fontSize=20;fontStyle=1;strokeWidth=2;" parent="EfS-6Uey1ptOtGm0Xwp3-2" vertex="1">
          <mxGeometry x="641.8799999999982" y="20" width="790" height="50" as="geometry" />
        </mxCell>
        <mxCell id="D2uAuJA1LaHFy1BpvuMR-4" value="Delete Employee" style="ellipse;whiteSpace=wrap;html=1;fontSize=20;fontStyle=1;strokeWidth=2;" parent="EfS-6Uey1ptOtGm0Xwp3-2" vertex="1">
          <mxGeometry x="620.789999999999" y="3520" width="370" height="70" as="geometry" />
        </mxCell>
        <mxCell id="D2uAuJA1LaHFy1BpvuMR-5" value="Search Employee" style="ellipse;whiteSpace=wrap;html=1;fontSize=20;fontStyle=1;strokeWidth=2;" parent="EfS-6Uey1ptOtGm0Xwp3-2" vertex="1">
          <mxGeometry x="630" y="3370" width="370" height="70" as="geometry" />
        </mxCell>
        <mxCell id="D2uAuJA1LaHFy1BpvuMR-2" value="Update Employee" style="ellipse;whiteSpace=wrap;html=1;fontSize=20;fontStyle=1;strokeWidth=2;" parent="EfS-6Uey1ptOtGm0Xwp3-2" vertex="1">
          <mxGeometry x="625" y="3250" width="375" height="70" as="geometry" />
        </mxCell>
        <mxCell id="D2uAuJA1LaHFy1BpvuMR-1" value="Employee Registartion" style="ellipse;whiteSpace=wrap;html=1;fontSize=20;fontStyle=1;strokeWidth=2;" parent="EfS-6Uey1ptOtGm0Xwp3-2" vertex="1">
          <mxGeometry x="618.2900000000009" y="3150" width="375" height="70" as="geometry" />
        </mxCell>
        <mxCell id="D2uAuJA1LaHFy1BpvuMR-243" value="&lt;font style=&quot;font-size: 20px;&quot;&gt;Approve EPF/ETF&lt;/font&gt;" style="ellipse;whiteSpace=wrap;html=1;fontSize=20;fontStyle=1;strokeWidth=2;" parent="EfS-6Uey1ptOtGm0Xwp3-2" vertex="1">
          <mxGeometry x="610.0000000000001" y="2920" width="374.96" height="80" as="geometry" />
        </mxCell>
        <mxCell id="D2uAuJA1LaHFy1BpvuMR-48" value="Generate increment" style="ellipse;whiteSpace=wrap;html=1;fontSize=20;fontStyle=1;strokeWidth=2;" parent="EfS-6Uey1ptOtGm0Xwp3-2" vertex="1">
          <mxGeometry x="610.0000000000001" y="2770" width="357" height="75" as="geometry" />
        </mxCell>
        <mxCell id="D2uAuJA1LaHFy1BpvuMR-47" value="Generate bonus&amp;nbsp;" style="ellipse;whiteSpace=wrap;html=1;fontSize=20;fontStyle=1;strokeWidth=2;" parent="EfS-6Uey1ptOtGm0Xwp3-2" vertex="1">
          <mxGeometry x="610.0000000000001" y="2650" width="357" height="75" as="geometry" />
        </mxCell>
        <mxCell id="M7SqLtU8nE5RaAWXsQSm-1" value="Arrange Training" style="ellipse;whiteSpace=wrap;html=1;fontSize=20;fontStyle=1;strokeWidth=2;" parent="EfS-6Uey1ptOtGm0Xwp3-2" vertex="1">
          <mxGeometry x="627.4999999999982" y="3640" width="370" height="70" as="geometry" />
        </mxCell>
        <mxCell id="M7SqLtU8nE5RaAWXsQSm-2" value="" style="endArrow=none;html=1;rounded=0;exitX=1;exitY=0.5;exitDx=0;exitDy=0;strokeWidth=2;" parent="EfS-6Uey1ptOtGm0Xwp3-2" source="M7SqLtU8nE5RaAWXsQSm-1" edge="1">
          <mxGeometry width="50" height="50" relative="1" as="geometry">
            <mxPoint x="990" y="3680" as="sourcePoint" />
            <mxPoint x="2340" y="3420" as="targetPoint" />
          </mxGeometry>
        </mxCell>
        <mxCell id="D2uAuJA1LaHFy1BpvuMR-23" value="Calculate Salaries" style="ellipse;whiteSpace=wrap;html=1;fontSize=20;fontStyle=1;strokeWidth=2;" parent="EfS-6Uey1ptOtGm0Xwp3-2" vertex="1">
          <mxGeometry x="633.130000000001" y="2300" width="357" height="75" as="geometry" />
        </mxCell>
        <mxCell id="D2uAuJA1LaHFy1BpvuMR-180" value="" style="endArrow=none;dashed=1;html=1;rounded=0;exitX=1;exitY=0;exitDx=0;exitDy=0;startArrow=open;startFill=0;startSize=12;entryX=0.094;entryY=0.761;entryDx=0;entryDy=0;fontSize=20;fontStyle=1;strokeWidth=2;entryPerimeter=0;" parent="EfS-6Uey1ptOtGm0Xwp3-2" source="D2uAuJA1LaHFy1BpvuMR-63" target="D2uAuJA1LaHFy1BpvuMR-23" edge="1">
          <mxGeometry width="50" height="50" relative="1" as="geometry">
            <mxPoint x="600.6200000000008" y="2450.3900000000003" as="sourcePoint" />
            <mxPoint x="688.0770130227429" y="2370.001628365033" as="targetPoint" />
          </mxGeometry>
        </mxCell>
        <mxCell id="D2uAuJA1LaHFy1BpvuMR-181" value="" style="endArrow=none;dashed=1;html=1;rounded=0;startArrow=open;startFill=0;startSize=12;fontSize=20;fontStyle=1;strokeWidth=2;" parent="EfS-6Uey1ptOtGm0Xwp3-2" source="D2uAuJA1LaHFy1BpvuMR-31" edge="1">
          <mxGeometry width="50" height="50" relative="1" as="geometry">
            <mxPoint x="384.6200000000008" y="2628.3900000000003" as="sourcePoint" />
            <mxPoint x="900" y="2370" as="targetPoint" />
          </mxGeometry>
        </mxCell>
        <mxCell id="D2uAuJA1LaHFy1BpvuMR-182" value="" style="endArrow=none;dashed=1;html=1;rounded=0;entryX=0.5;entryY=1;entryDx=0;entryDy=0;startArrow=open;startFill=0;startSize=12;fontSize=20;fontStyle=1;strokeWidth=2;" parent="EfS-6Uey1ptOtGm0Xwp3-2" source="D2uAuJA1LaHFy1BpvuMR-32" edge="1">
          <mxGeometry width="50" height="50" relative="1" as="geometry">
            <mxPoint x="404.6200000000008" y="2648.3900000000003" as="sourcePoint" />
            <mxPoint x="821.3900000000012" y="2380.3900000000003" as="targetPoint" />
          </mxGeometry>
        </mxCell>
        <mxCell id="D2uAuJA1LaHFy1BpvuMR-183" value="" style="endArrow=none;dashed=1;html=1;rounded=0;startArrow=open;startFill=0;startSize=12;entryX=0.343;entryY=0.963;entryDx=0;entryDy=0;entryPerimeter=0;fontSize=20;fontStyle=1;strokeWidth=2;" parent="EfS-6Uey1ptOtGm0Xwp3-2" source="D2uAuJA1LaHFy1BpvuMR-33" target="D2uAuJA1LaHFy1BpvuMR-23" edge="1">
          <mxGeometry width="50" height="50" relative="1" as="geometry">
            <mxPoint x="380.6200000000008" y="2530.3900000000003" as="sourcePoint" />
            <mxPoint x="769.2650000000012" y="2383.4000000000005" as="targetPoint" />
          </mxGeometry>
        </mxCell>
        <mxCell id="D2uAuJA1LaHFy1BpvuMR-187" value="&lt;font style=&quot;font-size: 20px;&quot;&gt;&amp;lt;&amp;lt;include&amp;gt;&amp;gt;&lt;/font&gt;" style="text;html=1;align=center;verticalAlign=middle;resizable=0;points=[];autosize=1;strokeColor=none;fillColor=none;fontSize=20;fontStyle=1;strokeWidth=2;" parent="EfS-6Uey1ptOtGm0Xwp3-2" vertex="1">
          <mxGeometry x="902.3199999999997" y="2430.3900000000003" width="130" height="40" as="geometry" />
        </mxCell>
        <mxCell id="D2uAuJA1LaHFy1BpvuMR-188" value="&lt;font style=&quot;font-size: 20px;&quot;&gt;&amp;lt;&amp;lt;include&amp;gt;&amp;gt;&lt;/font&gt;" style="text;html=1;align=center;verticalAlign=middle;resizable=0;points=[];autosize=1;strokeColor=none;fillColor=none;fontSize=20;fontStyle=1;strokeWidth=2;" parent="EfS-6Uey1ptOtGm0Xwp3-2" vertex="1">
          <mxGeometry x="768.2399999999998" y="2430.3900000000003" width="130" height="40" as="geometry" />
        </mxCell>
        <mxCell id="D2uAuJA1LaHFy1BpvuMR-189" value="&lt;font style=&quot;font-size: 20px;&quot;&gt;&amp;lt;&amp;lt;include&amp;gt;&amp;gt;&lt;/font&gt;" style="text;html=1;align=center;verticalAlign=middle;resizable=0;points=[];autosize=1;strokeColor=none;fillColor=none;fontSize=20;fontStyle=1;strokeWidth=2;" parent="EfS-6Uey1ptOtGm0Xwp3-2" vertex="1">
          <mxGeometry x="633.8900000000012" y="2420.3900000000003" width="130" height="40" as="geometry" />
        </mxCell>
        <mxCell id="D2uAuJA1LaHFy1BpvuMR-190" value="&lt;font style=&quot;font-size: 20px;&quot;&gt;&amp;lt;&amp;lt;include&amp;gt;&amp;gt;&lt;/font&gt;" style="text;html=1;align=center;verticalAlign=middle;resizable=0;points=[];autosize=1;strokeColor=none;fillColor=none;fontSize=20;fontStyle=1;strokeWidth=2;" parent="EfS-6Uey1ptOtGm0Xwp3-2" vertex="1">
          <mxGeometry x="512.9400000000005" y="2380.3900000000003" width="130" height="40" as="geometry" />
        </mxCell>
        <mxCell id="D2uAuJA1LaHFy1BpvuMR-31" value="Add OT" style="ellipse;whiteSpace=wrap;html=1;fontSize=20;fontStyle=1;strokeWidth=2;" parent="EfS-6Uey1ptOtGm0Xwp3-2" vertex="1">
          <mxGeometry x="901" y="2490" width="149" height="59.61" as="geometry" />
        </mxCell>
        <mxCell id="D2uAuJA1LaHFy1BpvuMR-32" value="Add Bonus" style="ellipse;whiteSpace=wrap;html=1;fontSize=20;fontStyle=1;strokeWidth=2;" parent="EfS-6Uey1ptOtGm0Xwp3-2" vertex="1">
          <mxGeometry x="733.6499999999996" y="2520.0000000000005" width="152.79" height="80" as="geometry" />
        </mxCell>
        <mxCell id="D2uAuJA1LaHFy1BpvuMR-33" value="Add Increment" style="ellipse;whiteSpace=wrap;html=1;fontSize=20;fontStyle=1;strokeWidth=2;" parent="EfS-6Uey1ptOtGm0Xwp3-2" vertex="1">
          <mxGeometry x="542.6399999999994" y="2490.0000000000005" width="177.79" height="80" as="geometry" />
        </mxCell>
        <mxCell id="D2uAuJA1LaHFy1BpvuMR-63" value="Add NoPay" style="ellipse;whiteSpace=wrap;html=1;fontSize=20;fontStyle=1;strokeWidth=2;" parent="EfS-6Uey1ptOtGm0Xwp3-2" vertex="1">
          <mxGeometry x="389.9999999999982" y="2420.0000000000005" width="165.79" height="70" as="geometry" />
        </mxCell>
      </root>
    </mxGraphModel>
  </diagram>
</mxfile>
